<svg width="179" height="41" viewBox="0 0 179 41" fill="none" xmlns="http://www.w3.org/2000/svg">
<path fill-rule="evenodd" clip-rule="evenodd" d="M29.5308 13.451C31.1256 13.451 32.6847 13.9239 34.0107 14.81C35.3368 15.696 36.3703 16.9554 36.9807 18.4289C37.591 19.9023 37.7507 21.5236 37.4395 23.0878C37.1284 24.652 36.3604 26.0888 35.2327 27.2166C34.1049 28.3443 32.6681 29.1123 31.1039 29.4234C29.5397 29.7346 27.9184 29.5749 26.445 28.9646C24.9715 28.3542 23.7121 27.3207 22.826 25.9946C21.94 24.6686 21.4671 23.1095 21.4671 21.5147H15.0161V28.5445C15.3384 29.2099 15.7073 29.855 16.1213 30.4746C16.635 31.2434 17.2114 31.963 17.8428 32.6271C20.0489 32.3502 22.2132 31.75 24.2737 30.8397C25.6318 30.2396 29.5721 31.7329 33.6365 33.2733C35.2479 33.884 36.8788 34.502 38.3761 35C39.2933 34.3984 40.1512 33.7018 40.9346 32.9185C41.7945 32.0586 42.5498 31.1088 43.1898 30.0893C42.5398 28.7821 41.7564 27.3634 40.9753 25.949C38.8728 22.1416 36.7872 18.3648 37.3658 16.8747C38.3923 14.2312 38.9982 11.4275 39.1619 8.57889C38.9426 8.41562 38.7188 8.25767 38.4907 8.10524C37.8711 7.69122 37.226 7.3223 36.5605 7L29.5308 7V13.451Z" fill="#616173"/>
<path fill-rule="evenodd" clip-rule="evenodd" d="M121.323 12.0666C121.83 12.574 122.464 12.8277 123.225 12.8277C123.986 12.8277 124.61 12.574 125.096 12.0666C125.583 11.5381 125.826 10.9038 125.826 10.1638C125.826 9.40277 125.583 8.76849 125.096 8.26111C124.61 7.75369 123.986 7.5 123.225 7.5C122.464 7.5 121.83 7.75369 121.323 8.26111C120.836 8.76849 120.593 9.40277 120.593 10.1638C120.593 10.9038 120.836 11.5381 121.323 12.0666ZM125.635 14.9525H120.783V30.3648H125.635V14.9525ZM51.1724 7.97571V30.3648H66.0774V25.9885H56.1513V7.97571H51.1724ZM75.0436 30.7136C73.458 30.7136 72.0204 30.3648 70.7307 29.6671C69.4622 28.9483 68.458 27.9758 67.718 26.7495C66.9781 25.5233 66.6081 24.1491 66.6081 22.6269C66.6081 21.1047 66.9781 19.7411 67.718 18.536C68.458 17.3309 69.4622 16.3795 70.7307 15.6819C71.9992 14.963 73.4369 14.6036 75.0436 14.6036C76.6504 14.6036 78.088 14.9525 79.3565 15.6501C80.625 16.3478 81.6293 17.3098 82.3692 18.536C83.1092 19.7411 83.4792 21.1047 83.4792 22.6269C83.4792 24.1491 83.1092 25.5233 82.3692 26.7495C81.6293 27.9758 80.625 28.9483 79.3565 29.6671C78.088 30.3648 76.6504 30.7136 75.0436 30.7136ZM75.0436 26.3056C75.7413 26.3056 76.3544 26.1576 76.883 25.8616C77.4115 25.5445 77.8132 25.1111 78.088 24.5614C78.384 23.9906 78.532 23.3457 78.532 22.6269C78.532 21.9081 78.384 21.2844 78.088 20.7559C77.792 20.2062 77.3798 19.7834 76.8512 19.4874C76.3438 19.1702 75.7413 19.0117 75.0436 19.0117C74.3671 19.0117 73.7646 19.1702 73.236 19.4874C72.7075 19.7834 72.2952 20.2062 71.9992 20.7559C71.7032 21.3056 71.5553 21.9398 71.5553 22.6586C71.5553 23.3563 71.7032 23.9906 71.9992 24.5614C72.2952 25.1111 72.7075 25.5445 73.236 25.8616C73.7646 26.1576 74.3671 26.3056 75.0436 26.3056ZM91.7934 37.2781C90.102 37.2781 88.6115 36.9821 87.3219 36.3902C86.0534 35.8194 85.0491 35.0054 84.3092 33.9483L87.2901 30.9673C87.8398 31.6227 88.453 32.1196 89.1295 32.4578C89.8272 32.7961 90.6623 32.9652 91.6348 32.9652C92.8399 32.9652 93.7807 32.6693 94.4572 32.0773C95.1549 31.4853 95.5037 30.6502 95.5037 29.572V28.5986C95.1734 28.8627 94.8034 29.092 94.3938 29.2866C93.5481 29.6883 92.6073 29.8891 91.5714 29.8891C90.1549 29.8891 88.8969 29.5508 87.7976 28.8743C86.6981 28.1978 85.8314 27.2781 85.1971 26.1153C84.5628 24.9525 84.2458 23.6629 84.2458 22.2464C84.2458 20.8087 84.5628 19.5191 85.1971 18.3774C85.8314 17.2146 86.6981 16.3055 87.7976 15.6501C88.8969 14.9736 90.1549 14.6353 91.5714 14.6353C92.6284 14.6353 93.5692 14.8362 94.3938 15.2379C94.8432 15.4402 95.245 15.6902 95.5988 15.988V14.9525H100.356V29.4451C100.356 31.0308 99.9857 32.405 99.2458 33.5678C98.5058 34.7306 97.4911 35.6396 96.2014 36.295C94.9118 36.9504 93.4424 37.2781 91.7934 37.2781ZM92.491 25.5762C93.1676 25.5762 93.7489 25.4282 94.2352 25.1322C94.7426 24.8362 95.1231 24.4451 95.3769 23.9588C95.6517 23.4514 95.7891 22.8806 95.7891 22.2464C95.7891 21.6121 95.6517 21.0413 95.3769 20.5339C95.1231 20.0265 94.7426 19.6248 94.2352 19.3288C93.7489 19.0328 93.1676 18.8848 92.491 18.8848C91.8356 18.8848 91.2542 19.0328 90.7468 19.3288C90.2394 19.6248 89.8483 20.0265 89.5735 20.5339C89.2986 21.0413 89.1612 21.6121 89.1612 22.2464C89.1612 22.8383 89.2986 23.3986 89.5735 23.9271C89.8483 24.4345 90.2288 24.8362 90.7151 25.1322C91.2225 25.4282 91.8145 25.5762 92.491 25.5762ZM110.567 30.7136C108.981 30.7136 107.543 30.3648 106.254 29.6671C104.985 28.9483 103.981 27.9758 103.241 26.7495C102.501 25.5233 102.131 24.1491 102.131 22.6269C102.131 21.1047 102.501 19.7411 103.241 18.536C103.981 17.3309 104.985 16.3795 106.254 15.6819C107.522 14.963 108.96 14.6036 110.567 14.6036C112.173 14.6036 113.611 14.9525 114.879 15.6501C116.148 16.3478 117.152 17.3098 117.892 18.536C118.632 19.7411 119.002 21.1047 119.002 22.6269C119.002 24.1491 118.632 25.5233 117.892 26.7495C117.152 27.9758 116.148 28.9483 114.879 29.6671C113.611 30.3648 112.173 30.7136 110.567 30.7136ZM110.567 26.3056C111.264 26.3056 111.877 26.1576 112.406 25.8616C112.934 25.5445 113.336 25.1111 113.611 24.5614C113.907 23.9906 114.055 23.3457 114.055 22.6269C114.055 21.9081 113.907 21.2844 113.611 20.7559C113.315 20.2062 112.903 19.7834 112.374 19.4874C111.867 19.1702 111.264 19.0117 110.567 19.0117C109.89 19.0117 109.287 19.1702 108.759 19.4874C108.23 19.7834 107.818 20.2062 107.522 20.7559C107.226 21.3056 107.078 21.9398 107.078 22.6586C107.078 23.3563 107.226 23.9906 107.522 24.5614C107.818 25.1111 108.23 25.5445 108.759 25.8616C109.287 26.1576 109.89 26.3056 110.567 26.3056ZM134.443 30.0794C135.31 30.4811 136.262 30.6819 137.297 30.6819C138.756 30.6819 140.046 30.3331 141.166 29.6354C142.308 28.9377 143.196 27.9864 143.83 26.7813C144.486 25.5762 144.813 24.202 144.813 22.6586C144.813 21.1153 144.486 19.7411 143.83 18.536C143.196 17.3309 142.308 16.3795 141.166 15.6819C140.046 14.9842 138.756 14.6353 137.297 14.6353C136.262 14.6353 135.31 14.8467 134.443 15.2696C134.013 15.4794 133.622 15.7283 133.27 16.0162V14.9525H128.418V36.8659H133.207V29.3222C133.575 29.6156 133.987 29.868 134.443 30.0794ZM138.217 25.8299C137.71 26.147 137.107 26.3056 136.41 26.3056C135.754 26.3056 135.162 26.147 134.634 25.8299C134.105 25.5128 133.693 25.0793 133.397 24.5297C133.122 23.98 132.985 23.3563 132.985 22.6586C132.985 21.9398 133.133 21.3056 133.429 20.7559C133.725 20.2062 134.126 19.7834 134.634 19.4874C135.162 19.1702 135.765 19.0117 136.441 19.0117C137.118 19.0117 137.71 19.1702 138.217 19.4874C138.746 19.7834 139.158 20.2062 139.454 20.7559C139.75 21.3056 139.898 21.9398 139.898 22.6586C139.898 23.3563 139.75 23.98 139.454 24.5297C139.158 25.0793 138.746 25.5128 138.217 25.8299ZM149.562 30.3965C150.45 30.6291 151.348 30.7453 152.257 30.7453C154.181 30.7453 155.703 30.3014 156.824 29.4134C157.965 28.5255 158.536 27.331 158.536 25.8299C158.536 24.8574 158.357 24.0751 157.997 23.4832C157.638 22.8701 157.173 22.3838 156.602 22.0244C156.031 21.665 155.428 21.3795 154.794 21.1681C154.16 20.9567 153.557 20.777 152.987 20.629C152.416 20.481 151.951 20.3119 151.591 20.1216C151.232 19.9313 151.052 19.6776 151.052 19.3605C151.052 19.0645 151.19 18.8425 151.464 18.6945C151.739 18.5254 152.151 18.4409 152.701 18.4409C153.272 18.4409 153.853 18.5571 154.445 18.7897C155.058 19.0222 155.608 19.424 156.094 19.9948L158.853 17.2041C158.156 16.3161 157.247 15.6501 156.126 15.2062C155.027 14.7411 153.822 14.5085 152.511 14.5085C151.264 14.5085 150.175 14.7199 149.245 15.1427C148.314 15.5656 147.595 16.147 147.088 16.8869C146.581 17.6057 146.327 18.462 146.327 19.4557C146.327 20.3859 146.507 21.1576 146.866 21.7707C147.225 22.3626 147.691 22.8278 148.261 23.166C148.832 23.5043 149.435 23.7686 150.069 23.9588C150.703 24.1491 151.306 24.3288 151.877 24.498C152.447 24.646 152.913 24.8257 153.272 25.0371C153.653 25.2274 153.843 25.5128 153.843 25.8933C153.843 26.1893 153.684 26.4218 153.367 26.591C153.071 26.7601 152.638 26.8447 152.067 26.8447C151.242 26.8447 150.481 26.6967 149.784 26.4007C149.086 26.0836 148.483 25.6502 147.976 25.1005L145.217 27.8912C145.746 28.462 146.38 28.9695 147.12 29.4134C147.881 29.8362 148.695 30.1639 149.562 30.3965ZM163.611 29.8574C164.71 30.4282 165.968 30.7136 167.384 30.7136C168.801 30.7136 170.048 30.4282 171.126 29.8574C172.205 29.2654 173.05 28.462 173.663 27.4472C174.277 26.4113 174.583 25.2168 174.583 23.8637V14.9525H169.731V23.832C169.731 24.6354 169.52 25.2696 169.097 25.7347C168.674 26.1787 168.103 26.4007 167.384 26.4007C166.877 26.4007 166.444 26.295 166.084 26.0836C165.725 25.8722 165.45 25.5762 165.26 25.1956C165.09 24.8151 165.006 24.3605 165.006 23.832V14.9525H160.154V23.8954C160.154 25.2274 160.46 26.4113 161.074 27.4472C161.687 28.462 162.532 29.2654 163.611 29.8574Z" fill="#616173"/>
</svg>
