<svg width="121" height="31" viewBox="0 0 121 31" fill="none" xmlns="http://www.w3.org/2000/svg">
<path d="M96.4998 8.35362C96.4998 7.60836 97.104 7.00359 97.8492 7.00359H98.7495C99.1075 7.00359 99.4509 7.14582 99.7041 7.399C99.9572 7.65218 100.099 7.99557 100.099 8.35362C100.099 8.71167 99.9572 9.05505 99.7041 9.30823C99.4509 9.56141 99.1075 9.70365 98.7495 9.70365H97.8492C97.672 9.70365 97.4964 9.66872 97.3327 9.60087C97.1689 9.53302 97.0201 9.43356 96.8948 9.30819C96.7695 9.18282 96.6701 9.03399 96.6024 8.8702C96.5346 8.70641 96.4997 8.53088 96.4998 8.35362ZM58.7072 16.0021C58.7072 20.9713 54.6791 25 49.7093 25C44.7401 25 40.7114 20.9713 40.7114 16.0021C40.7114 11.0316 44.7401 7.00422 49.7093 7.00422C54.6791 7.00422 58.7072 11.0316 58.7072 16.0021ZM38.9563 15.9574C39.454 15.9574 39.8609 16.3606 39.8112 16.8557C39.6411 18.5502 38.9936 20.1617 37.944 21.5028C36.8943 22.8439 35.4857 23.8596 33.8817 24.4319C32.2777 25.0041 30.5442 25.1094 28.8827 24.7355C27.2212 24.3616 25.7 23.5238 24.4958 22.3196C23.2916 21.1154 22.4538 19.5941 22.0799 17.9327C21.706 16.2712 21.8113 14.5377 22.3835 12.9337C22.9558 11.3297 23.9715 9.92102 25.3126 8.8714C26.6537 7.82177 28.2651 7.17429 29.9597 7.00422C30.4542 6.95382 30.858 7.36204 30.858 7.85846V15.0572C30.858 15.5548 31.2612 15.9574 31.7582 15.9574H38.9563ZM68.6053 25C73.5751 25 77.6038 20.9713 77.6038 16.0021C77.606 14.4757 77.218 12.974 76.4768 11.6396L77.9635 10.1528C78.1348 9.98149 78.2706 9.7781 78.3632 9.55428C78.4559 9.33045 78.5035 9.09057 78.5035 8.84833C78.5034 8.60609 78.4557 8.36623 78.3629 8.14245C78.2701 7.91867 78.1342 7.71535 77.9629 7.5441C77.7916 7.37285 77.5882 7.23703 77.3644 7.14438C77.1405 7.05173 76.9006 7.00408 76.6584 7.00414C76.4162 7.00419 76.1763 7.05197 75.9525 7.14472C75.7287 7.23748 75.5254 7.3734 75.3542 7.54473L74.0564 8.84248C72.4908 7.64673 70.5747 7.00042 68.6047 7.00359C63.6361 7.00422 59.608 11.0316 59.608 16.0021C59.608 20.9713 63.6361 25 68.6053 25ZM96.4998 16.0021C96.4998 20.9713 92.4711 25 87.5013 25C82.5321 25 78.5034 20.9713 78.5034 16.0021C78.5034 11.0316 82.5321 7.00422 87.5013 7.00422C92.4711 7.00422 96.4998 11.0323 96.4998 16.0021Z" fill="#616173"/>
</svg>
