<svg width="74" height="31" viewBox="0 0 74 31" fill="none" xmlns="http://www.w3.org/2000/svg">
<g clip-path="url(#clip0_2015_5396)">
<path fill-rule="evenodd" clip-rule="evenodd" d="M81.134 13.7509L78.5431 24.5H72.9611L77.0348 7.59752C78.0036 3.57796 83.7212 3.42918 84.9015 7.3928L86.966 14.3239L89.03 7.3928C90.2108 3.42916 95.9278 3.57798 96.8966 7.59753L100.97 24.5H95.3883L92.7974 13.7509L90.8717 20.2176C89.7228 24.0745 84.2086 24.0745 83.0603 20.2176L81.134 13.7509ZM11.1306 24.5V4.5H5.74756V24.5H11.1306ZM24.5693 4.5H13.1304V24.5H18.5134V17.8333H24.5693C28.2855 17.8333 31.2981 14.8486 31.2981 11.1667C31.2981 7.48477 28.2855 4.5 24.5693 4.5ZM24.5693 12.5H18.5134V9.83333H24.5693C25.3126 9.83333 25.9151 10.4303 25.9151 11.1667C25.9151 11.903 25.3126 12.5 24.5693 12.5ZM56.8304 4.5V14.8333C56.8304 17.2266 58.7886 19.1667 61.2041 19.1667C63.6197 19.1667 65.5779 17.2266 65.5779 14.8333V4.5H70.9611V14.8333C70.9611 20.1721 66.5927 24.5 61.2041 24.5C55.8156 24.5 51.4474 20.1721 51.4474 14.8333V4.5H56.8304ZM48.1017 4.5C42.899 4.5 38.6814 8.67867 38.6814 13.8333V14.5C38.6814 17.0773 36.5726 19.1667 33.9712 19.1667H33.2983V24.5H33.9712C39.5455 24.5 44.0644 20.0228 44.0644 14.5V13.8333C44.0644 11.6242 45.8719 9.83333 48.1017 9.83333H49.4474V4.5H48.1017ZM123.156 14.5C123.156 20.0229 118.639 24.5 113.062 24.5C107.488 24.5 102.97 20.0229 102.97 14.5C102.97 8.97715 107.488 4.5 113.062 4.5C118.639 4.5 123.156 8.97715 123.156 14.5Z" fill="#616173"/>
</g>
<defs>
<clipPath id="clip0_2015_5396">
<rect width="73" height="30" fill="white" transform="translate(0.0161133 0.5)"/>
</clipPath>
</defs>
</svg>
