<svg width="188" height="41" viewBox="0 0 188 41" fill="none" xmlns="http://www.w3.org/2000/svg">
<path fill-rule="evenodd" clip-rule="evenodd" d="M23.1612 10L21.734 12.3855C19.4819 16.1505 22.8587 20.7261 27.2817 19.9029L30.0161 19.3942L29.1312 14.9663L26.3968 15.4756C25.9054 15.567 25.5303 15.0583 25.7809 14.6399L27.2076 12.2549L23.1612 10ZM17.8711 31L19.2984 28.6145C21.5501 24.8495 18.1737 20.2739 13.7505 21.0971L11.0161 21.6058L11.9011 26.0331L14.635 25.5244C15.127 25.433 15.5021 25.9417 15.2515 26.3601L13.8242 28.7456L17.8711 31ZM20.2175 12.3855L18.6323 10L14.1356 12.2549L15.7215 14.6399C15.9993 15.0583 15.5831 15.567 15.0365 15.4756L11.9982 14.9663L11.0161 19.3942L14.0538 19.9029C18.969 20.7261 22.7212 16.1505 20.2181 12.3855H20.2175ZM23.1611 31L21.7349 28.6145H21.7338C19.4822 24.8495 22.8585 20.2739 27.2817 21.0971L30.0161 21.6058L29.1312 26.0331L26.3973 25.5244C25.9053 25.433 25.5307 25.9417 25.7808 26.3601L27.2081 28.7456L23.1611 31Z" fill="#616173"/>
<path d="M155.13 28.153V19.653C155.13 18.475 155.401 17.418 155.943 16.483C156.504 15.529 157.299 14.781 158.328 14.238C159.357 13.696 160.582 13.425 162.003 13.425C162.666 13.4185 163.327 13.5033 163.967 13.677C164.566 13.827 165.108 14.042 165.594 14.322C166.099 14.584 166.529 14.902 166.885 15.276H166.941C167.322 14.8967 167.757 14.5752 168.231 14.322C168.752 14.0352 169.309 13.8183 169.887 13.677C170.537 13.5046 171.207 13.4198 171.879 13.425C173.3 13.425 174.525 13.695 175.554 14.238C176.582 14.781 177.377 15.528 177.938 16.483C178.5 17.418 178.78 18.474 178.78 19.653V28.153H174.403V19.793C174.403 19.326 174.282 18.905 174.039 18.531C173.816 18.1398 173.497 17.8116 173.113 17.577C172.708 17.3303 172.241 17.2038 171.766 17.212C171.261 17.212 170.803 17.334 170.392 17.577C170.007 17.8113 169.689 18.1396 169.466 18.531C169.239 18.9124 169.123 19.3493 169.129 19.793V28.153H164.781V19.793C164.781 19.326 164.659 18.905 164.416 18.531C164.188 18.1342 163.859 17.8049 163.462 17.577C163.057 17.3303 162.59 17.2038 162.115 17.212C161.61 17.212 161.152 17.334 160.741 17.577C160.356 17.8113 160.038 18.1396 159.815 18.531C159.589 18.9126 159.472 19.3493 159.478 19.793V28.153H155.13ZM145.619 28.49C144.142 28.49 142.86 28.21 141.776 27.648C140.71 27.068 139.887 26.292 139.307 25.32C138.727 24.329 138.437 23.234 138.437 22.037V13.761H142.786V21.925C142.786 22.43 142.907 22.898 143.15 23.328C143.393 23.739 143.721 24.076 144.132 24.338C144.562 24.581 145.049 24.703 145.591 24.703C146.115 24.703 146.582 24.581 146.994 24.338C147.424 24.076 147.761 23.739 148.004 23.328C148.247 22.898 148.369 22.43 148.369 21.925V13.761H152.717V22.037C152.717 23.234 152.436 24.329 151.875 25.32C151.314 26.292 150.501 27.069 149.435 27.648C148.387 28.209 147.115 28.49 145.619 28.49ZM124.43 28.153V24.703H131.36C131.547 24.703 131.715 24.665 131.865 24.59C132.014 24.497 132.136 24.375 132.229 24.226C132.321 24.0786 132.369 23.9085 132.369 23.735C132.369 23.5615 132.321 23.3914 132.229 23.244C132.142 23.0998 132.016 22.983 131.865 22.907C131.714 22.8131 131.538 22.7645 131.36 22.767H128.835C127.899 22.767 127.048 22.617 126.282 22.318C125.554 22.0166 124.93 21.5096 124.486 20.859C124.056 20.186 123.841 19.316 123.841 18.25C123.841 17.427 124.037 16.679 124.43 16.006C124.839 15.3351 125.408 14.7758 126.085 14.378C126.792 13.9676 127.597 13.7545 128.414 13.761H135.343V17.24H129.087C128.839 17.235 128.598 17.3256 128.414 17.493C128.332 17.5732 128.267 17.6692 128.224 17.7754C128.18 17.8815 128.159 17.9953 128.161 18.11C128.161 18.372 128.246 18.596 128.414 18.783C128.598 18.9504 128.839 19.041 129.087 19.036H131.556C132.603 19.036 133.501 19.195 134.249 19.512C135.016 19.812 135.605 20.298 136.017 20.972C136.447 21.645 136.662 22.514 136.662 23.58C136.662 24.422 136.447 25.189 136.017 25.88C135.609 26.5688 135.029 27.1395 134.333 27.536C133.641 27.948 132.856 28.153 131.977 28.153H124.43ZM114.956 13.425C116.172 13.425 117.247 13.621 118.182 14.014C119.101 14.3642 119.926 14.9208 120.595 15.641C121.277 16.3466 121.803 17.1879 122.138 18.11C122.493 19.045 122.671 20.083 122.671 21.224C122.671 22.645 122.372 23.908 121.773 25.011C121.22 26.0681 120.385 26.9516 119.361 27.564C118.332 28.181 117.135 28.49 115.77 28.49C115.19 28.49 114.638 28.415 114.114 28.266C113.618 28.1201 113.145 27.9025 112.712 27.62C112.304 27.3428 111.951 26.9906 111.674 26.582H111.589V34.242H107.241V21.223C107.241 19.633 107.559 18.258 108.195 17.099C108.812 15.9582 109.748 15.0219 110.888 14.405C112.048 13.751 113.404 13.424 114.956 13.424V13.425ZM114.956 17.184C114.283 17.184 113.694 17.352 113.189 17.689C112.702 18.007 112.328 18.456 112.066 19.036C111.805 19.596 111.674 20.233 111.674 20.943C111.674 21.654 111.805 22.29 112.066 22.851C112.328 23.412 112.702 23.861 113.189 24.198C113.694 24.516 114.283 24.675 114.956 24.675C115.629 24.675 116.209 24.515 116.695 24.198C117.184 23.8586 117.572 23.3931 117.818 22.851C118.098 22.29 118.238 21.654 118.238 20.943C118.238 20.233 118.098 19.597 117.818 19.036C117.556 18.456 117.182 18.006 116.695 17.689C116.209 17.352 115.629 17.184 114.956 17.184ZM100.633 28.153V13.761H105.01V28.153H100.633ZM102.821 12.134C102.129 12.134 101.531 11.882 101.026 11.377C100.521 10.872 100.268 10.273 100.268 9.581C100.268 8.889 100.521 8.291 101.026 7.786C101.531 7.262 102.129 7 102.821 7C103.513 7 104.112 7.262 104.617 7.786C105.122 8.291 105.374 8.889 105.374 9.581C105.374 10.273 105.122 10.871 104.617 11.377C104.112 11.882 103.513 12.134 102.821 12.134ZM91.1211 28.49C89.6441 28.49 88.3161 28.163 87.1371 27.508C85.9805 26.874 85.0127 25.9448 84.3321 24.815C83.6591 23.674 83.3221 22.393 83.3221 20.971C83.3221 19.531 83.6591 18.25 84.3321 17.128C85.0127 15.9982 85.9805 15.069 87.1371 14.435C88.3161 13.761 89.6441 13.425 91.1211 13.425C92.5991 13.425 93.9171 13.761 95.0771 14.435C96.2296 15.0646 97.1894 15.9954 97.8541 17.128C98.5461 18.25 98.8921 19.531 98.8921 20.971C98.8921 22.393 98.5461 23.674 97.8541 24.815C97.1894 25.9476 96.2296 26.8784 95.0771 27.508C93.8991 28.163 92.5801 28.49 91.1211 28.49ZM91.1211 24.703C91.8131 24.703 92.4121 24.534 92.9171 24.198C93.4222 23.8614 93.8288 23.3965 94.0951 22.851C94.3761 22.29 94.5161 21.654 94.5161 20.943C94.5161 20.251 94.3761 19.625 94.0951 19.063C93.8287 18.5179 93.4221 18.0533 92.9171 17.717C92.4121 17.38 91.8131 17.212 91.1211 17.212C90.4291 17.212 89.8211 17.38 89.2981 17.717C88.7927 18.0537 88.3859 18.5185 88.1191 19.064C87.8334 19.649 87.6895 20.293 87.6991 20.944C87.6991 21.654 87.8391 22.29 88.1191 22.851C88.3859 23.3964 88.7928 23.8613 89.2981 24.198C89.8211 24.534 90.4291 24.703 91.1211 24.703ZM69.1901 33.849V30.117H76.3711C76.6521 30.117 76.8861 30.024 77.0731 29.837C77.1643 29.7564 77.2366 29.6568 77.285 29.5452C77.3334 29.4335 77.3566 29.3126 77.3531 29.191V26.021H77.2691C76.9139 26.4341 76.5088 26.8016 76.0631 27.115C75.6511 27.415 75.1831 27.639 74.6601 27.789C74.1035 27.9454 73.5272 28.0208 72.9491 28.013C71.6771 28.013 70.5361 27.713 69.5261 27.115C68.5351 26.498 67.7491 25.647 67.1691 24.562C66.6091 23.478 66.3281 22.243 66.3281 20.859C66.3281 19.494 66.6181 18.25 67.1981 17.128C67.7961 16.006 68.6661 15.108 69.8071 14.435C70.9471 13.761 72.3411 13.425 73.9871 13.425C75.5581 13.425 76.9141 13.752 78.0551 14.407C79.2009 15.0289 80.1377 15.9751 80.7481 17.127C81.3841 18.287 81.7021 19.653 81.7021 21.224V29.64C81.7021 30.93 81.3191 31.95 80.5521 32.698C79.8041 33.465 78.7661 33.848 77.4381 33.848L69.1901 33.849ZM74.0151 24.366C74.6881 24.366 75.2681 24.216 75.7551 23.917C76.2356 23.605 76.6229 23.169 76.8761 22.655C77.1421 22.114 77.2767 21.5178 77.2691 20.915C77.2691 20.242 77.1391 19.625 76.8771 19.064C76.6151 18.503 76.2411 18.063 75.7541 17.745C75.2681 17.408 74.6881 17.24 74.0141 17.24C73.3601 17.24 72.7801 17.399 72.2751 17.717C71.7891 18.035 71.4151 18.465 71.1531 19.007C70.8921 19.55 70.7611 20.157 70.7611 20.831C70.7611 21.486 70.8911 22.084 71.1531 22.627C71.4151 23.15 71.7891 23.571 72.2761 23.889C72.7801 24.207 73.3601 24.366 74.0151 24.366ZM57.4891 28.49C56.0121 28.49 54.6841 28.163 53.5061 27.508C52.3491 26.8742 51.3809 25.945 50.7001 24.815C50.0271 23.674 49.6901 22.393 49.6901 20.971C49.6901 19.531 50.0271 18.25 50.7001 17.128C51.3809 15.998 52.3491 15.0688 53.5061 14.435C54.6841 13.761 56.0121 13.425 57.4891 13.425C58.9671 13.425 60.2851 13.761 61.4451 14.435C62.5975 15.0647 63.5573 15.9955 64.2221 17.128C64.9141 18.25 65.2601 19.531 65.2601 20.971C65.2601 22.393 64.9141 23.674 64.2221 24.815C63.5573 25.9475 62.5975 26.8783 61.4451 27.508C60.2671 28.163 58.9481 28.49 57.4891 28.49ZM57.4891 24.703C58.1811 24.703 58.7791 24.534 59.2851 24.198C59.79 23.8611 60.1965 23.3963 60.4631 22.851C60.7431 22.29 60.8831 21.654 60.8831 20.943C60.8831 20.251 60.7431 19.625 60.4631 19.063C60.1964 18.518 59.7899 18.0535 59.2851 17.717C58.7801 17.38 58.1811 17.212 57.4891 17.212C56.7971 17.212 56.1891 17.38 55.6661 17.717C55.1607 18.0537 54.7539 18.5185 54.4871 19.064C54.2014 19.649 54.0575 20.293 54.0671 20.944C54.0671 21.654 54.2071 22.29 54.4871 22.851C54.7539 23.3964 55.1608 23.8613 55.6661 24.198C56.1891 24.534 56.7971 24.703 57.4891 24.703ZM43.5631 28.153C42.3471 28.153 41.2811 27.883 40.3651 27.34C39.4742 26.8234 38.738 26.0776 38.2331 25.18C37.7281 24.282 37.4751 23.29 37.4751 22.206V8.515H42.1881V22.542C42.1881 22.992 42.3481 23.384 42.6651 23.721C42.9831 24.057 43.3751 24.226 43.8431 24.226H49.0331V28.153H43.5631Z" fill="#616173"/>
</svg>
