<svg width="161" height="31" viewBox="0 0 161 31" fill="none" xmlns="http://www.w3.org/2000/svg">
<path fill-rule="evenodd" clip-rule="evenodd" d="M55.6972 26.5584C53.7362 26.5584 52.2352 26.0993 51.1941 25.1811C50.1531 24.2628 49.6326 22.9653 49.6326 21.2885V10.2698C49.6326 8.59307 50.1531 7.29557 51.1941 6.37735C52.2352 5.45911 53.7362 5 55.6972 5C57.6582 5 59.1592 5.45911 60.2003 6.37735C61.2413 7.29557 61.7618 8.59307 61.7618 10.2698V21.2885C61.7618 22.9653 61.2413 24.2628 60.2003 25.1811C59.1592 26.0993 57.6582 26.5584 55.6972 26.5584ZM55.6972 23.5642C57.0772 23.5642 57.7672 22.8755 57.7672 21.4981V10.0602C57.7672 8.68289 57.0772 7.99422 55.6972 7.99422C54.3172 7.99422 53.6272 8.68289 53.6272 10.0602V21.4981C53.6272 22.8755 54.3172 23.5642 55.6972 23.5642ZM37.5815 5.29943H41.5762V23.2647H48.1492V26.259H37.5815V5.29943ZM65.6979 25.211C66.7148 26.1093 68.1916 26.5584 70.1284 26.5584C72.0652 26.5584 73.542 26.1093 74.5588 25.211C75.5757 24.2928 76.0841 22.9853 76.0841 21.2885V14.4318H70.31V17.426H72.3073V21.5281C72.3073 22.8855 71.6173 23.5642 70.2373 23.5642C68.8574 23.5642 68.1674 22.8855 68.1674 21.5281V10.0602C68.1674 8.68289 68.8574 7.99422 70.2373 7.99422C71.6173 7.99422 72.3073 8.68289 72.3073 10.0602V12.0664H76.0841V10.2698C76.0841 8.57311 75.5757 7.27561 74.5588 6.37735C73.542 5.45911 72.0652 5 70.1284 5C68.1916 5 66.7148 5.45911 65.6979 6.37735C64.6811 7.27561 64.1727 8.57311 64.1727 10.2698V21.2885C64.1727 22.9853 64.6811 24.2928 65.6979 25.211ZM84.423 26.5584C82.462 26.5584 80.961 26.0993 79.92 25.1811C78.8789 24.2628 78.3584 22.9653 78.3584 21.2885V10.2698C78.3584 8.59307 78.8789 7.29557 79.92 6.37735C80.961 5.45911 82.462 5 84.423 5C86.3841 5 87.8851 5.45911 88.9261 6.37735C89.9672 7.29557 90.4877 8.59307 90.4877 10.2698V21.2885C90.4877 22.9653 89.9672 24.2628 88.9261 25.1811C87.8851 26.0993 86.3841 26.5584 84.423 26.5584ZM84.423 23.5642C85.803 23.5642 86.493 22.8755 86.493 21.4981V10.0602C86.493 8.68289 85.803 7.99422 84.423 7.99422C83.0431 7.99422 82.3531 8.68289 82.3531 10.0602V21.4981C82.3531 22.8755 83.0431 23.5642 84.423 23.5642ZM97.1914 5.29943H93.1967V26.259H97.1914V5.29943ZM100.183 5.29943H106.066C108.051 5.29943 109.54 5.73858 110.533 6.61689C111.526 7.49519 112.022 8.78271 112.022 10.4794V12.5454C112.022 14.2422 111.526 15.5297 110.533 16.408C109.54 17.2863 108.051 17.7254 106.066 17.7254H104.178V26.259H100.183V5.29943ZM106.066 14.7312C106.72 14.7312 107.204 14.5815 107.519 14.2821C107.858 13.9826 108.027 13.4737 108.027 12.755V10.2698C108.027 9.55122 107.858 9.0422 107.519 8.74278C107.204 8.44336 106.72 8.29366 106.066 8.29366H104.178V14.7312H106.066ZM115.132 25.211C116.125 26.1093 117.59 26.5584 119.526 26.5584C121.487 26.5584 122.976 26.0993 123.993 25.1811C125.034 24.2628 125.555 22.9454 125.555 21.2287C125.555 19.9112 125.24 18.7635 124.611 17.7854C123.981 16.8072 122.831 15.7193 121.161 14.5216C119.853 13.5834 118.945 12.7849 118.437 12.1262C117.953 11.4675 117.711 10.7589 117.711 10.0004C117.711 8.66293 118.376 7.99422 119.708 7.99422C120.362 7.99422 120.858 8.1639 121.197 8.50324C121.536 8.82262 121.705 9.34163 121.705 10.0602V11.1382H125.482V10.2698C125.482 8.57311 124.986 7.27561 123.993 6.37735C123.025 5.45911 121.584 5 119.672 5C117.735 5 116.258 5.45911 115.241 6.37735C114.224 7.27561 113.716 8.55315 113.716 10.21C113.716 11.4276 114.043 12.5255 114.696 13.5036C115.35 14.4618 116.5 15.5396 118.146 16.7373C119.454 17.6755 120.35 18.484 120.834 19.1627C121.318 19.8214 121.56 20.5899 121.56 21.4682C121.56 22.2068 121.378 22.7458 121.015 23.0851C120.676 23.4045 120.168 23.5642 119.49 23.5642C118.11 23.5642 117.42 22.8855 117.42 21.5281V20.0909H113.643V21.2885C113.643 22.9853 114.14 24.2928 115.132 25.211ZM133.656 26.5584C131.719 26.5584 130.242 26.1093 129.225 25.211C128.208 24.2928 127.7 22.9853 127.7 21.2886V5.29944H131.695V21.5282C131.695 22.2467 131.864 22.7657 132.203 23.0852C132.566 23.4045 133.075 23.5642 133.728 23.5642C134.382 23.5642 134.878 23.4045 135.217 23.0852C135.58 22.7657 135.762 22.2467 135.762 21.5282V5.29944H139.611V21.2886C139.611 22.9853 139.103 24.2928 138.086 25.211C137.069 26.1093 135.592 26.5584 133.656 26.5584ZM148.158 5.29943H142.456V26.259H145.943V10.3896H146.015L148.92 26.259H152.261L155.167 10.3896H155.239V26.259H159.016V5.29943H153.315L150.772 20.3005H150.7L148.158 5.29943Z" fill="#616173"/>
<path fill-rule="evenodd" clip-rule="evenodd" d="M17.5161 13C12.0783 13 7.60003 9.06243 7.01611 4H14.5713C15.0378 5.12062 16.1804 5.91249 17.5161 5.91249C18.8518 5.91249 19.9945 5.12062 20.461 4H28.0161C27.4322 9.06243 22.9539 13 17.5161 13ZM6.01611 25C9.88213 25 13.0161 21.866 13.0161 18C13.0161 14.134 9.88213 11 6.01611 11V15.9C7.17591 15.9 8.1161 16.8402 8.1161 18C8.1161 19.1598 7.17591 20.1 6.01611 20.1V25ZM30.0161 12.6001C28.7711 12.2103 27.4453 12 26.0697 12C18.8603 12 13.0161 17.7756 13.0161 24.9C13.0161 25.6151 13.075 26.3166 13.1882 27H21.2988C21.0093 26.3585 20.8483 25.6479 20.8483 24.9C20.8483 22.0502 23.186 19.74 26.0697 19.74C27.6458 19.74 29.0587 20.4301 30.0161 21.5212V12.6001Z" fill="#616173"/>
</svg>
