<svg width="171" height="41" viewBox="0 0 171 41" fill="none" xmlns="http://www.w3.org/2000/svg">
<path d="M51.2935 29.3232H63.2455V25.7232H55.5415V12.1632H51.2935V29.3232Z" fill="#616173"/>
<path d="M70.3269 26.9232C68.6229 26.9232 67.7349 25.4352 67.7349 23.2032C67.7349 20.9712 68.6229 19.4592 70.3269 19.4592C72.0309 19.4592 72.9429 20.9712 72.9429 23.2032C72.9429 25.4352 72.0309 26.9232 70.3269 26.9232ZM70.3509 29.7072C74.3109 29.7072 76.9029 26.8992 76.9029 23.2032C76.9029 19.5072 74.3109 16.6992 70.3509 16.6992C66.4149 16.6992 63.7749 19.5072 63.7749 23.2032C63.7749 26.8992 66.4149 29.7072 70.3509 29.7072Z" fill="#616173"/>
<path d="M83.7572 33.5712C85.5812 33.5712 87.1892 33.1632 88.2692 32.2032C89.2532 31.3152 89.9012 29.9712 89.9012 28.1232V17.0352H86.1572V18.3552H86.1092C85.3892 17.3232 84.2852 16.6752 82.6532 16.6752C79.6052 16.6752 77.4932 19.2192 77.4932 22.8192C77.4932 26.5872 80.0612 28.6512 82.8212 28.6512C84.3092 28.6512 85.2452 28.0512 85.9652 27.2352H86.0612V28.4592C86.0612 29.9472 85.3652 30.8112 83.7092 30.8112C82.4132 30.8112 81.7652 30.2592 81.5492 29.6112H77.7572C78.1412 32.1792 80.3732 33.5712 83.7572 33.5712ZM83.7332 25.7472C82.2692 25.7472 81.3092 24.5472 81.3092 22.6992C81.3092 20.8272 82.2692 19.6272 83.7332 19.6272C85.3652 19.6272 86.2292 21.0192 86.2292 22.6752C86.2292 24.4032 85.4372 25.7472 83.7332 25.7472Z" fill="#616173"/>
<path d="M97.5994 26.9232C95.8954 26.9232 95.0074 25.4352 95.0074 23.2032C95.0074 20.9712 95.8954 19.4592 97.5994 19.4592C99.3034 19.4592 100.215 20.9712 100.215 23.2032C100.215 25.4352 99.3034 26.9232 97.5994 26.9232ZM97.6234 29.7072C101.583 29.7072 104.175 26.8992 104.175 23.2032C104.175 19.5072 101.583 16.6992 97.6234 16.6992C93.6874 16.6992 91.0474 19.5072 91.0474 23.2032C91.0474 26.8992 93.6874 29.7072 97.6234 29.7072Z" fill="#616173"/>
<path d="M105.318 29.3232H109.23V17.0352H105.318V29.3232ZM105.318 15.3312H109.23V12.1632H105.318V15.3312Z" fill="#616173"/>
<path d="M110.927 33.3792H114.839V28.0512H114.887C115.655 29.0832 116.783 29.7072 118.367 29.7072C121.583 29.7072 123.719 27.1632 123.719 23.1792C123.719 19.4832 121.727 16.6752 118.463 16.6752C116.783 16.6752 115.583 17.4192 114.743 18.5232H114.671V17.0352H110.927V33.3792ZM117.359 26.6832C115.679 26.6832 114.719 25.3152 114.719 23.3232C114.719 21.3312 115.583 19.8192 117.287 19.8192C118.967 19.8192 119.759 21.2112 119.759 23.3232C119.759 25.4112 118.847 26.6832 117.359 26.6832Z" fill="#616173"/>
<path d="M130.088 29.7072C133.304 29.7072 135.68 28.3152 135.68 25.6272C135.68 22.4832 133.136 21.9312 130.976 21.5712C129.416 21.2832 128.024 21.1632 128.024 20.2992C128.024 19.5312 128.768 19.1712 129.728 19.1712C130.808 19.1712 131.552 19.5072 131.696 20.6112H135.296C135.104 18.1872 133.232 16.6752 129.752 16.6752C126.848 16.6752 124.448 18.0192 124.448 20.6112C124.448 23.4912 126.728 24.0672 128.864 24.4272C130.496 24.7152 131.984 24.8352 131.984 25.9392C131.984 26.7312 131.24 27.1632 130.064 27.1632C128.768 27.1632 127.952 26.5632 127.808 25.3392H124.112C124.232 28.0512 126.488 29.7072 130.088 29.7072Z" fill="#616173"/>
<path d="M140.994 29.6832C142.698 29.6832 143.778 29.0112 144.666 27.8112H144.738V29.3232H148.482V17.0352H144.57V23.8992C144.57 25.3632 143.754 26.3712 142.41 26.3712C141.162 26.3712 140.562 25.6272 140.562 24.2832V17.0352H136.674V25.0992C136.674 27.8352 138.162 29.6832 140.994 29.6832Z" fill="#616173"/>
<path d="M150.184 29.3232H154.096V22.4352C154.096 20.9712 154.816 19.9392 156.04 19.9392C157.216 19.9392 157.768 20.7072 157.768 22.0272V29.3232H161.68V22.4352C161.68 20.9712 162.376 19.9392 163.624 19.9392C164.8 19.9392 165.352 20.7072 165.352 22.0272V29.3232H169.264V21.3312C169.264 18.5712 167.872 16.6752 165.088 16.6752C163.504 16.6752 162.184 17.3472 161.224 18.8352H161.176C160.552 17.5152 159.328 16.6752 157.72 16.6752C155.944 16.6752 154.768 17.5152 154 18.7872H153.928V17.0352H150.184V29.3232Z" fill="#616173"/>
<path fill-rule="evenodd" clip-rule="evenodd" d="M30.5161 34C37.4197 34 43.0161 28.4036 43.0161 21.5C43.0161 14.5964 37.4197 9 30.5161 9C23.6126 9 18.0161 14.5964 18.0161 21.5C18.0161 28.4036 23.6126 34 30.5161 34ZM32.4455 18.6579C33.511 17.5923 33.511 15.8647 32.4455 14.7992C31.3799 13.7336 29.6524 13.7336 28.5868 14.7992C27.5213 15.8647 27.5213 17.5923 28.5868 18.6579L30.5161 20.5872L32.4455 18.6579ZM33.3583 23.4294C34.4239 24.4949 36.1514 24.4949 37.217 23.4294C38.2825 22.3638 38.2825 20.6362 37.217 19.5707C36.1514 18.5052 34.4239 18.5052 33.3583 19.5707L31.429 21.5L33.3583 23.4294ZM32.4455 28.2009C33.511 27.1353 33.511 25.4077 32.4455 24.3422L30.5161 22.4129L28.5868 24.3422C27.5213 25.4077 27.5213 27.1353 28.5868 28.2009C29.6524 29.2664 31.3799 29.2664 32.4455 28.2009ZM23.8153 23.4294C22.7497 22.3638 22.7497 20.6362 23.8153 19.5707C24.8808 18.5052 26.6084 18.5052 27.674 19.5707L29.6033 21.5L27.674 23.4294C26.6084 24.4949 24.8808 24.4949 23.8153 23.4294Z" fill="#616173"/>
</svg>
