<svg width="99" height="31" viewBox="0 0 99 31" fill="none" xmlns="http://www.w3.org/2000/svg">
<g clip-path="url(#clip0_2015_5394)">
<path fill-rule="evenodd" clip-rule="evenodd" d="M7.53801 17.5C6.86759 17.5 6.22464 17.2366 5.75058 16.7678C5.27652 16.2989 5.0102 15.663 5.0102 15V3.5H-0.0454102V15C-0.0454102 19.142 3.34994 22.5 7.53801 22.5H13.0992V17.5H7.53801ZM22.7048 8.5C22.1073 8.5 21.5157 8.6164 20.9636 8.84254C20.4116 9.06869 19.91 9.40016 19.4875 9.81802C19.065 10.2359 18.7298 10.732 18.5011 11.2779C18.2725 11.8239 18.1548 12.4091 18.1548 13C18.1548 13.5909 18.2725 14.1761 18.5011 14.7221C18.7298 15.268 19.065 15.7641 19.4875 16.182C19.91 16.5998 20.4116 16.9313 20.9636 17.1575C21.5157 17.3836 22.1073 17.5 22.7048 17.5C23.9116 17.5 25.0689 17.0259 25.9222 16.182C26.7755 15.3381 27.2549 14.1935 27.2549 13C27.2549 11.8065 26.7755 10.6619 25.9222 9.81802C25.0689 8.97411 23.9116 8.5 22.7048 8.5ZM13.0992 13C13.0992 7.7535 17.4 3.5 22.7048 3.5C28.0097 3.5 32.3105 7.7535 32.3105 13C32.3105 18.2465 28.0097 22.5 22.7048 22.5C17.4 22.5 13.0992 18.2465 13.0992 13ZM77.3055 8.5C76.0987 8.5 74.9414 8.97411 74.0881 9.81802C73.2348 10.6619 72.7554 11.8065 72.7554 13C72.7554 14.1935 73.2348 15.3381 74.0881 16.182C74.9414 17.0259 76.0987 17.5 77.3055 17.5C78.5122 17.5 79.6695 17.0259 80.5228 16.182C81.3761 15.3381 81.8555 14.1935 81.8555 13C81.8555 11.8065 81.3761 10.6619 80.5228 9.81802C79.6695 8.97411 78.5122 8.5 77.3055 8.5ZM67.6998 13C67.6998 7.7535 72.0006 3.5 77.3055 3.5C82.6103 3.5 86.9111 7.7535 86.9111 13C86.9111 18.2465 82.6103 22.5 77.3055 22.5C72.0006 22.5 67.6998 18.2465 67.6998 13ZM42.9273 3.5C37.6224 3.5 33.3216 7.7535 33.3216 13C33.3216 18.2465 37.6224 22.5 42.9273 22.5H57.083C58.0785 22.5 59.0385 22.35 59.9415 22.072L62.6442 23.5L65.5603 18.098C66.301 16.7228 66.6885 15.1886 66.6887 13.6305V13C66.6887 7.7535 62.3879 3.5 57.083 3.5H42.9273ZM61.6331 13C61.6331 11.8065 61.1537 10.6619 60.3004 9.81802C59.4471 8.97411 58.2898 8.5 57.083 8.5H42.9273C42.3298 8.5 41.7381 8.6164 41.1861 8.84254C40.634 9.06869 40.1324 9.40016 39.7099 9.81802C39.2874 10.2359 38.9523 10.732 38.7236 11.2779C38.4949 11.8239 38.3772 12.4091 38.3772 13C38.3772 13.5909 38.4949 14.1761 38.7236 14.7221C38.9523 15.268 39.2874 15.7641 39.7099 16.182C40.1324 16.5998 40.634 16.9313 41.1861 17.1575C41.7381 17.3836 42.3298 17.5 42.9273 17.5H57.083C58.2837 17.5 59.4356 17.0307 60.2879 16.1944C61.1402 15.358 61.6237 14.2224 61.6331 13.035V13Z" fill="#616173"/>
</g>
<defs>
<clipPath id="clip0_2015_5394">
<rect width="98" height="30" fill="white" transform="translate(0.0161133 0.5)"/>
</clipPath>
</defs>
</svg>
