<svg width="203" height="41" viewBox="0 0 203 41" fill="none" xmlns="http://www.w3.org/2000/svg">
<path fill-rule="evenodd" clip-rule="evenodd" d="M21.5161 13.75C22.8511 13.75 24.1562 14.1459 25.2662 14.8876C26.3763 15.6293 27.2414 16.6835 27.7523 17.9169C28.2632 19.1503 28.3969 20.5075 28.1364 21.8169C27.876 23.1262 27.2331 24.3289 26.2891 25.273C25.3451 26.217 24.1423 26.8599 22.833 27.1203C21.5236 27.3808 20.1664 27.2471 18.933 26.7362C17.6996 26.2253 16.6454 25.3601 15.9037 24.2501C15.162 23.1401 14.7661 21.835 14.7661 20.5H8.01611C8.01611 23.17 8.80787 25.7801 10.2913 28.0002C11.7747 30.2203 13.8831 31.9506 16.3499 32.9724C18.8167 33.9941 21.5311 34.2615 24.1498 33.7406C26.7686 33.2197 29.1741 31.934 31.062 30.0459C32.9501 28.1579 34.2358 25.7524 34.7567 23.1337C35.2776 20.515 35.0102 17.8005 33.9885 15.3338C32.9667 12.867 31.2364 10.7586 29.0163 9.27516C26.935 7.8845 24.511 7.1017 22.0161 7.00926C22.0161 7.00617 22.0161 7.00309 22.0161 7L21.5187 7C21.5178 7 21.517 7 21.5161 7L15.0161 7C15.0161 7.8536 14.8351 8.69883 14.4833 9.48745C14.1315 10.2761 13.6159 10.9926 12.9659 11.5962C12.3159 12.1998 11.5442 12.6786 10.6949 13.0052C9.84562 13.3319 8.93536 13.5 8.01611 13.5V20C9.85462 20 11.6751 19.6638 13.3737 19.0104C15.0723 18.3571 16.6156 17.3995 17.9156 16.1924C19.2156 14.9853 20.2469 13.5521 20.9504 11.9749C21.1736 11.4747 21.3623 10.9631 21.5161 10.4433V13.75Z" fill="#616173"/>
<path fill-rule="evenodd" clip-rule="evenodd" d="M116.225 11.8277C115.464 11.8277 114.83 11.574 114.323 11.0666C113.836 10.5381 113.593 9.9038 113.593 9.16385C113.593 8.40277 113.836 7.76849 114.323 7.26111C114.83 6.75369 115.464 6.5 116.225 6.5C116.986 6.5 117.61 6.75369 118.096 7.26111C118.583 7.76849 118.826 8.40277 118.826 9.16385C118.826 9.9038 118.583 10.5381 118.096 11.0666C117.61 11.574 116.986 11.8277 116.225 11.8277ZM44.1724 6.97571V29.3648H59.0774V24.9885H49.1513V6.97571H44.1724ZM63.7307 28.6671C65.0204 29.3648 66.458 29.7136 68.0436 29.7136C69.6504 29.7136 71.088 29.3648 72.3565 28.6671C73.625 27.9483 74.6293 26.9758 75.3692 25.7495C76.1092 24.5233 76.4792 23.1491 76.4792 21.6269C76.4792 20.1047 76.1092 18.7411 75.3692 17.536C74.6293 16.3098 73.625 15.3478 72.3565 14.6501C71.088 13.9525 69.6504 13.6036 68.0436 13.6036C66.4369 13.6036 64.9992 13.963 63.7307 14.6819C62.4622 15.3795 61.458 16.3309 60.718 17.536C59.9781 18.7411 59.6081 20.1047 59.6081 21.6269C59.6081 23.1491 59.9781 24.5233 60.718 25.7495C61.458 26.9758 62.4622 27.9483 63.7307 28.6671ZM69.883 24.8616C69.3544 25.1576 68.7413 25.3056 68.0436 25.3056C67.3671 25.3056 66.7646 25.1576 66.236 24.8616C65.7075 24.5445 65.2952 24.1111 64.9992 23.5614C64.7032 22.9906 64.5553 22.3563 64.5553 21.6586C64.5553 20.9398 64.7032 20.3056 64.9992 19.7559C65.2952 19.2062 65.7075 18.7834 66.236 18.4874C66.7646 18.1702 67.3671 18.0117 68.0436 18.0117C68.7413 18.0117 69.3438 18.1702 69.8512 18.4874C70.3798 18.7834 70.792 19.2062 71.088 19.7559C71.384 20.2844 71.532 20.9081 71.532 21.6269C71.532 22.3457 71.384 22.9906 71.088 23.5614C70.8132 24.1111 70.4115 24.5445 69.883 24.8616ZM80.3219 35.3902C81.6115 35.9821 83.102 36.2781 84.7934 36.2781C86.4424 36.2781 87.9118 35.9504 89.2014 35.295C90.4911 34.6396 91.5058 33.7306 92.2458 32.5678C92.9857 31.405 93.3562 30.0308 93.3562 28.4451V13.9525H88.5988V14.988C88.245 14.6902 87.8432 14.4402 87.3938 14.2379C86.5692 13.8362 85.6284 13.6353 84.5714 13.6353C83.1549 13.6353 81.8969 13.9736 80.7976 14.6501C79.6981 15.3055 78.8314 16.2146 78.1971 17.3774C77.5628 18.5191 77.2458 19.8087 77.2458 21.2464C77.2458 22.6629 77.5628 23.9525 78.1971 25.1153C78.8314 26.2781 79.6981 27.1978 80.7976 27.8743C81.8969 28.5508 83.1549 28.8891 84.5714 28.8891C85.6073 28.8891 86.5481 28.6883 87.3938 28.2866C87.8034 28.092 88.1734 27.8627 88.5037 27.5986V28.572C88.5037 29.6502 88.1549 30.4853 87.4572 31.0773C86.7807 31.6693 85.8399 31.9652 84.6348 31.9652C83.6623 31.9652 82.8272 31.7961 82.1295 31.4578C81.453 31.1196 80.8398 30.6227 80.2901 29.9673L77.3092 32.9483C78.0491 34.0054 79.0534 34.8194 80.3219 35.3902ZM87.2352 24.1322C86.7489 24.4282 86.1676 24.5762 85.491 24.5762C84.8145 24.5762 84.2225 24.4282 83.7151 24.1322C83.2288 23.8362 82.8483 23.4345 82.5735 22.9271C82.2986 22.3986 82.1612 21.8383 82.1612 21.2464C82.1612 20.6121 82.2986 20.0413 82.5735 19.5339C82.8483 19.0265 83.2394 18.6248 83.7468 18.3288C84.2542 18.0328 84.8356 17.8848 85.491 17.8848C86.1676 17.8848 86.7489 18.0328 87.2352 18.3288C87.7426 18.6248 88.1231 19.0265 88.3769 19.5339C88.6517 20.0413 88.7891 20.6121 88.7891 21.2464C88.7891 21.8806 88.6517 22.4514 88.3769 22.9588C88.1231 23.4451 87.7426 23.8362 87.2352 24.1322ZM99.2542 28.6671C100.543 29.3648 101.981 29.7136 103.567 29.7136C105.173 29.7136 106.611 29.3648 107.879 28.6671C109.148 27.9483 110.152 26.9758 110.892 25.7495C111.632 24.5233 112.002 23.1491 112.002 21.6269C112.002 20.1047 111.632 18.7411 110.892 17.536C110.152 16.3098 109.148 15.3478 107.879 14.6501C106.611 13.9525 105.173 13.6036 103.567 13.6036C101.96 13.6036 100.522 13.963 99.2542 14.6819C97.9852 15.3795 96.9812 16.3309 96.2412 17.536C95.5012 18.7411 95.1312 20.1047 95.1312 21.6269C95.1312 23.1491 95.5012 24.5233 96.2412 25.7495C96.9812 26.9758 97.9852 27.9483 99.2542 28.6671ZM105.406 24.8616C104.877 25.1576 104.264 25.3056 103.567 25.3056C102.89 25.3056 102.287 25.1576 101.759 24.8616C101.23 24.5445 100.818 24.1111 100.522 23.5614C100.226 22.9906 100.078 22.3563 100.078 21.6586C100.078 20.9398 100.226 20.3056 100.522 19.7559C100.818 19.2062 101.23 18.7834 101.759 18.4874C102.287 18.1702 102.89 18.0117 103.567 18.0117C104.264 18.0117 104.867 18.1702 105.374 18.4874C105.903 18.7834 106.315 19.2062 106.611 19.7559C106.907 20.2844 107.055 20.9081 107.055 21.6269C107.055 22.3457 106.907 22.9906 106.611 23.5614C106.336 24.1111 105.934 24.5445 105.406 24.8616ZM130.297 29.6819C129.262 29.6819 128.31 29.4811 127.443 29.0794C126.987 28.868 126.575 28.6156 126.207 28.3222V35.8659H121.418V13.9525H126.27V15.0162C126.622 14.7283 127.013 14.4794 127.443 14.2696C128.31 13.8467 129.262 13.6353 130.297 13.6353C131.756 13.6353 133.046 13.9842 134.166 14.6819C135.308 15.3795 136.196 16.3309 136.83 17.536C137.486 18.7411 137.813 20.1153 137.813 21.6586C137.813 23.202 137.486 24.5762 136.83 25.7813C136.196 26.9864 135.308 27.9377 134.166 28.6354C133.046 29.3331 131.756 29.6819 130.297 29.6819ZM129.41 25.3056C130.107 25.3056 130.71 25.147 131.217 24.8299C131.746 24.5128 132.158 24.0793 132.454 23.5297C132.75 22.98 132.898 22.3563 132.898 21.6586C132.898 20.9398 132.75 20.3056 132.454 19.7559C132.158 19.2062 131.746 18.7834 131.217 18.4874C130.71 18.1702 130.118 18.0117 129.441 18.0117C128.765 18.0117 128.162 18.1702 127.634 18.4874C127.126 18.7834 126.725 19.2062 126.429 19.7559C126.133 20.3056 125.985 20.9398 125.985 21.6586C125.985 22.3563 126.122 22.98 126.397 23.5297C126.693 24.0793 127.105 24.5128 127.634 24.8299C128.162 25.147 128.754 25.3056 129.41 25.3056ZM145.257 29.7453C144.348 29.7453 143.45 29.6291 142.562 29.3965C141.695 29.1639 140.881 28.8362 140.12 28.4134C139.38 27.9695 138.746 27.462 138.217 26.8912L140.976 24.1005C141.483 24.6502 142.086 25.0836 142.784 25.4007C143.481 25.6967 144.242 25.8447 145.067 25.8447C145.638 25.8447 146.071 25.7601 146.367 25.591C146.684 25.4218 146.843 25.1893 146.843 24.8933C146.843 24.5128 146.653 24.2274 146.272 24.0371C145.913 23.8257 145.447 23.646 144.877 23.498C144.306 23.3288 143.703 23.1491 143.069 22.9588C142.435 22.7686 141.832 22.5043 141.261 22.166C140.691 21.8278 140.225 21.3626 139.866 20.7707C139.507 20.1576 139.327 19.3859 139.327 18.4557C139.327 17.462 139.581 16.6057 140.088 15.8869C140.595 15.147 141.314 14.5656 142.245 14.1427C143.175 13.7199 144.264 13.5085 145.511 13.5085C146.822 13.5085 148.027 13.7411 149.126 14.2062C150.247 14.6501 151.156 15.3161 151.853 16.2041L149.094 18.9948C148.608 18.424 148.058 18.0222 147.445 17.7897C146.853 17.5571 146.272 17.4409 145.701 17.4409C145.151 17.4409 144.739 17.5254 144.464 17.6945C144.19 17.8425 144.052 18.0645 144.052 18.3605C144.052 18.6776 144.232 18.9313 144.591 19.1216C144.951 19.3119 145.416 19.481 145.987 19.629C146.557 19.777 147.16 19.9567 147.794 20.1681C148.428 20.3795 149.031 20.665 149.602 21.0244C150.173 21.3838 150.638 21.8701 150.997 22.4832C151.357 23.0751 151.536 23.8574 151.536 24.8299C151.536 26.331 150.965 27.5255 149.824 28.4134C148.703 29.3014 147.181 29.7453 145.257 29.7453ZM160.384 29.7136C158.968 29.7136 157.71 29.4282 156.611 28.8574C155.532 28.2654 154.687 27.462 154.074 26.4472C153.46 25.4113 153.154 24.2274 153.154 22.8954V13.9525H158.006V22.832C158.006 23.3605 158.09 23.8151 158.26 24.1956C158.45 24.5762 158.725 24.8722 159.084 25.0836C159.444 25.295 159.877 25.4007 160.384 25.4007C161.103 25.4007 161.674 25.1787 162.097 24.7347C162.52 24.2696 162.731 23.6354 162.731 22.832V13.9525H167.583V22.8637C167.583 24.2168 167.277 25.4113 166.663 26.4472C166.05 27.462 165.205 28.2654 164.126 28.8574C163.048 29.4282 161.801 29.7136 160.384 29.7136ZM169.995 13.9525H174.847V15.0916C175.171 14.8093 175.53 14.567 175.926 14.3647C176.835 13.8785 177.86 13.6353 179.002 13.6353C180.08 13.6353 181.042 13.8785 181.887 14.3647C182.52 14.7193 183.056 15.175 183.497 15.7319C183.97 15.1995 184.522 14.7649 185.154 14.4282C186.126 13.8996 187.215 13.6353 188.42 13.6353C189.604 13.6353 190.651 13.889 191.56 14.3965C192.49 14.8827 193.219 15.5909 193.748 16.5212C194.298 17.4303 194.573 18.5297 194.573 19.8193V29.3648H189.72V20.3584C189.72 19.5762 189.477 18.9736 188.991 18.5508C188.526 18.1068 187.945 17.8848 187.247 17.8848C186.761 17.8848 186.327 17.9905 185.947 18.202C185.566 18.3922 185.26 18.6671 185.027 19.0265C184.816 19.3859 184.71 19.8299 184.71 20.3584V29.3648H179.858V20.3584C179.858 19.5762 179.615 18.9736 179.128 18.5508C178.663 18.1068 178.082 17.8848 177.384 17.8848C176.898 17.8848 176.465 17.9905 176.084 18.202C175.704 18.3922 175.397 18.6671 175.164 19.0265C174.953 19.3859 174.847 19.8299 174.847 20.3584V29.3648H169.995V13.9525ZM118.635 13.9525H113.783V29.3648H118.635V13.9525Z" fill="#616173"/>
</svg>
