<svg width="171" height="41" viewBox="0 0 171 41" fill="none" xmlns="http://www.w3.org/2000/svg">
<path fill-rule="evenodd" clip-rule="evenodd" d="M41.876 28.138H53.828V24.538H46.124V10.978H41.876V28.138ZM60.9091 25.738C59.2051 25.738 58.3171 24.25 58.3171 22.018C58.3171 19.786 59.2051 18.274 60.9091 18.274C62.6131 18.274 63.5251 19.786 63.5251 22.018C63.5251 24.25 62.6131 25.738 60.9091 25.738ZM60.9331 28.522C64.8931 28.522 67.4851 25.714 67.4851 22.018C67.4851 18.322 64.8931 15.514 60.9331 15.514C56.9971 15.514 54.3571 18.322 54.3571 22.018C54.3571 25.714 56.9971 28.522 60.9331 28.522ZM78.8516 31.018C77.7716 31.978 76.1636 32.386 74.3396 32.386C70.9556 32.386 68.7236 30.994 68.3396 28.426H72.1316C72.3476 29.074 72.9956 29.626 74.2916 29.626C75.9476 29.626 76.6436 28.762 76.6436 27.274V26.05H76.5476C75.8276 26.866 74.8916 27.466 73.4036 27.466C70.6436 27.466 68.0756 25.402 68.0756 21.634C68.0756 18.034 70.1876 15.49 73.2356 15.49C74.8676 15.49 75.9716 16.138 76.6916 17.17H76.7396V15.85H80.4836V26.938C80.4836 28.786 79.8356 30.13 78.8516 31.018ZM71.8916 21.514C71.8916 23.362 72.8516 24.562 74.3156 24.562C76.0196 24.562 76.8116 23.218 76.8116 21.49C76.8116 19.834 75.9476 18.442 74.3156 18.442C72.8516 18.442 71.8916 19.642 71.8916 21.514ZM88.1819 25.738C86.4779 25.738 85.5899 24.25 85.5899 22.018C85.5899 19.786 86.4779 18.274 88.1819 18.274C89.8859 18.274 90.7979 19.786 90.7979 22.018C90.7979 24.25 89.8859 25.738 88.1819 25.738ZM88.2059 28.522C92.1659 28.522 94.7579 25.714 94.7579 22.018C94.7579 18.322 92.1659 15.514 88.2059 15.514C84.2699 15.514 81.6299 18.322 81.6299 22.018C81.6299 25.714 84.2699 28.522 88.2059 28.522ZM99.8119 28.138H95.8999V15.85H99.8119V28.138ZM99.8119 14.146H95.8999V10.978H99.8119V14.146ZM101.51 32.194H105.422V26.866H105.47C106.238 27.898 107.366 28.522 108.95 28.522C112.166 28.522 114.302 25.978 114.302 21.994C114.302 18.298 112.31 15.49 109.046 15.49C107.366 15.49 106.166 16.234 105.326 17.338H105.254V15.85H101.51V32.194ZM107.942 25.498C106.262 25.498 105.302 24.13 105.302 22.138C105.302 20.146 106.166 18.634 107.87 18.634C109.55 18.634 110.342 20.026 110.342 22.138C110.342 24.226 109.43 25.498 107.942 25.498ZM126.263 24.442C126.263 27.13 123.887 28.522 120.671 28.522C117.071 28.522 114.815 26.866 114.695 24.154H118.391C118.535 25.378 119.351 25.978 120.647 25.978C121.823 25.978 122.567 25.546 122.567 24.754C122.567 23.7654 121.374 23.5658 119.952 23.3281L119.952 23.3281L119.951 23.3279C119.786 23.3002 119.617 23.272 119.447 23.242C117.311 22.882 115.031 22.306 115.031 19.426C115.031 16.834 117.431 15.49 120.335 15.49C123.815 15.49 125.687 17.002 125.879 19.426H122.279C122.135 18.322 121.391 17.986 120.311 17.986C119.351 17.986 118.607 18.346 118.607 19.114C118.607 19.8713 119.676 20.057 120.991 20.2853C121.176 20.3174 121.366 20.3504 121.559 20.386C123.719 20.746 126.263 21.298 126.263 24.442ZM131.577 28.498C133.281 28.498 134.361 27.826 135.249 26.626H135.321V28.138H139.065V15.85H135.153V22.714C135.153 24.178 134.337 25.186 132.993 25.186C131.745 25.186 131.145 24.442 131.145 23.098V15.85H127.257V23.914C127.257 26.65 128.745 28.498 131.577 28.498ZM144.678 28.138H140.766V15.85H144.51V17.602H144.582C145.35 16.33 146.526 15.49 148.302 15.49C149.91 15.49 151.134 16.33 151.758 17.65H151.806C152.766 16.162 154.086 15.49 155.67 15.49C158.454 15.49 159.846 17.386 159.846 20.146V28.138H155.934V20.842C155.934 19.522 155.382 18.754 154.206 18.754C152.958 18.754 152.262 19.786 152.262 21.25V28.138H148.35V20.842C148.35 19.522 147.798 18.754 146.622 18.754C145.398 18.754 144.678 19.786 144.678 21.25V28.138Z" fill="#616173"/>
<path fill-rule="evenodd" clip-rule="evenodd" d="M20.5161 34C27.972 34 34.0161 27.9558 34.0161 20.5C34.0161 13.0442 27.972 7 20.5161 7C13.0603 7 7.01611 13.0442 7.01611 20.5C7.01611 27.9558 13.0603 34 20.5161 34ZM24.7276 13.2889C24.9326 12.5607 24.226 12.1301 23.5806 12.5899L14.5715 19.008C13.8716 19.5066 13.9816 20.5 14.7368 20.5H17.1092V20.4816H21.7328L17.9654 21.8109L16.3046 27.7112C16.0996 28.4393 16.8062 28.8699 17.4516 28.4101L26.4608 21.9921C27.1607 21.4935 27.0505 20.5 26.2954 20.5H22.6978L24.7276 13.2889Z" fill="#616173"/>
</svg>
