<svg width="76" height="75" viewBox="0 0 76 75" fill="none" xmlns="http://www.w3.org/2000/svg">
<g filter="url(#filter0_ii_118_2706)">
<rect x="0.5" width="75" height="75" rx="6" fill="url(#paint0_linear_118_2706)"/>
<g filter="url(#filter1_ii_118_2706)">
<path d="M21 32.069V45.3547C21 46.5867 21.4993 47.7682 22.388 48.6394C23.2767 49.5106 24.4821 50 25.7389 50H49.4335C50.6903 50 51.8957 49.5106 52.7844 48.6394C53.6731 47.7682 54.1724 46.5867 54.1724 45.3547V32.069L40.0694 40.5746C39.3226 41.025 38.463 41.2634 37.5862 41.2634C36.7094 41.2634 35.8498 41.025 35.103 40.5746L21 32.069Z" fill="#13131B"/>
<path d="M54.1724 28.8407V28.5985C54.1724 27.3789 53.6731 26.2092 52.7844 25.3469C51.8957 24.4845 50.6903 24 49.4335 24H25.7389C24.4821 24 23.2767 24.4845 22.388 25.3469C21.4993 26.2092 21 27.3789 21 28.5985V28.8407L36.3446 38.0039C36.718 38.2268 37.1478 38.3448 37.5862 38.3448C38.0246 38.3448 38.4544 38.2268 38.8278 38.0039L54.1724 28.8407Z" fill="#13131B"/>
</g>
</g>
<defs>
<filter id="filter0_ii_118_2706" x="0.5" y="-0.75" width="75" height="76.5" filterUnits="userSpaceOnUse" color-interpolation-filters="sRGB">
<feFlood flood-opacity="0" result="BackgroundImageFix"/>
<feBlend mode="normal" in="SourceGraphic" in2="BackgroundImageFix" result="shape"/>
<feColorMatrix in="SourceAlpha" type="matrix" values="0 0 0 0 0 0 0 0 0 0 0 0 0 0 0 0 0 0 127 0" result="hardAlpha"/>
<feOffset dy="-0.75"/>
<feGaussianBlur stdDeviation="0.375"/>
<feComposite in2="hardAlpha" operator="arithmetic" k2="-1" k3="1"/>
<feColorMatrix type="matrix" values="0 0 0 0 0 0 0 0 0 0 0 0 0 0 0 0 0 0 0.2 0"/>
<feBlend mode="normal" in2="shape" result="effect1_innerShadow_118_2706"/>
<feColorMatrix in="SourceAlpha" type="matrix" values="0 0 0 0 0 0 0 0 0 0 0 0 0 0 0 0 0 0 127 0" result="hardAlpha"/>
<feOffset dy="0.75"/>
<feGaussianBlur stdDeviation="0.375"/>
<feComposite in2="hardAlpha" operator="arithmetic" k2="-1" k3="1"/>
<feColorMatrix type="matrix" values="0 0 0 0 1 0 0 0 0 1 0 0 0 0 1 0 0 0 0.16 0"/>
<feBlend mode="normal" in2="effect1_innerShadow_118_2706" result="effect2_innerShadow_118_2706"/>
</filter>
<filter id="filter1_ii_118_2706" x="21" y="23.25" width="33.1719" height="27.5" filterUnits="userSpaceOnUse" color-interpolation-filters="sRGB">
<feFlood flood-opacity="0" result="BackgroundImageFix"/>
<feBlend mode="normal" in="SourceGraphic" in2="BackgroundImageFix" result="shape"/>
<feColorMatrix in="SourceAlpha" type="matrix" values="0 0 0 0 0 0 0 0 0 0 0 0 0 0 0 0 0 0 127 0" result="hardAlpha"/>
<feOffset dy="-0.75"/>
<feGaussianBlur stdDeviation="0.375"/>
<feComposite in2="hardAlpha" operator="arithmetic" k2="-1" k3="1"/>
<feColorMatrix type="matrix" values="0 0 0 0 0 0 0 0 0 0 0 0 0 0 0 0 0 0 0.2 0"/>
<feBlend mode="normal" in2="shape" result="effect1_innerShadow_118_2706"/>
<feColorMatrix in="SourceAlpha" type="matrix" values="0 0 0 0 0 0 0 0 0 0 0 0 0 0 0 0 0 0 127 0" result="hardAlpha"/>
<feOffset dy="0.75"/>
<feGaussianBlur stdDeviation="0.375"/>
<feComposite in2="hardAlpha" operator="arithmetic" k2="-1" k3="1"/>
<feColorMatrix type="matrix" values="0 0 0 0 1 0 0 0 0 1 0 0 0 0 1 0 0 0 0.16 0"/>
<feBlend mode="normal" in2="effect1_innerShadow_118_2706" result="effect2_innerShadow_118_2706"/>
</filter>
<linearGradient id="paint0_linear_118_2706" x1="38" y1="75" x2="38" y2="0" gradientUnits="userSpaceOnUse">
<stop stop-color="#FF37E3"/>
<stop offset="1" stop-color="#8A54FF"/>
</linearGradient>
</defs>
</svg>
