<svg width="20" height="20" viewBox="0 0 20 20" fill="none" xmlns="http://www.w3.org/2000/svg">
<path d="M2.79007 16.835C2.34026 16.835 1.96498 16.6846 1.66424 16.3839C1.3635 16.0832 1.21281 15.7076 1.21216 15.2571V4.74292C1.21216 4.29311 1.36285 3.91783 1.66424 3.61709C1.96564 3.31635 2.34058 3.16566 2.78909 3.16501H17.2109C17.6601 3.16501 18.0351 3.3157 18.3358 3.61709C18.6365 3.91849 18.7872 4.29376 18.7879 4.74292V15.2581C18.7879 15.7072 18.6372 16.0825 18.3358 16.3839C18.0344 16.6853 17.6595 16.8357 17.2109 16.835H2.79007ZM10 10.1133L17.8114 5.00558L17.5107 4.14144L10 9.02358L2.48933 4.14144L2.18859 5.00558L10 10.1133Z" fill="url(#paint0_linear_97_8412)"/>
<defs>
<linearGradient id="paint0_linear_97_8412" x1="10" y1="3.16501" x2="10" y2="16.835" gradientUnits="userSpaceOnUse">
<stop stop-color="white"/>
<stop offset="1" stop-color="white" stop-opacity="0.9"/>
</linearGradient>
</defs>
</svg>
