<svg width="33" height="33" viewBox="0 0 33 33" fill="none" xmlns="http://www.w3.org/2000/svg">
<path d="M17.7375 4.20996C19.092 4.21357 19.7795 4.2208 20.373 4.23765L20.6066 4.24608C20.8763 4.25571 21.1424 4.26775 21.4638 4.2822C22.7449 4.3424 23.6189 4.54466 24.3859 4.84205C25.1805 5.14785 25.8499 5.56202 26.5193 6.23022C27.1318 6.83189 27.6055 7.55998 27.9075 8.36366C28.2049 9.13059 28.4071 10.0047 28.4673 11.2869C28.4818 11.6072 28.4938 11.8732 28.5035 12.1441L28.5107 12.3777C28.5287 12.9701 28.536 13.6575 28.5384 15.012L28.5396 15.9101V17.4874C28.5425 18.3655 28.5333 19.2437 28.5119 20.1216L28.5047 20.3552C28.495 20.6261 28.483 20.8922 28.4685 21.2124C28.4083 22.4947 28.2037 23.3675 27.9075 24.1357C27.6055 24.9394 27.1318 25.6675 26.5193 26.2691C25.9176 26.8816 25.1896 27.3553 24.3859 27.6573C23.6189 27.9547 22.7449 28.1569 21.4638 28.2171L20.6066 28.2533L20.373 28.2605C19.7795 28.2773 19.092 28.2858 17.7375 28.2882L16.8394 28.2894H15.2634C14.3848 28.2925 13.5062 28.2832 12.6279 28.2617L12.3943 28.2545C12.1085 28.2436 11.8228 28.2312 11.5371 28.2171C10.2561 28.1569 9.38199 27.9547 8.61386 27.6573C7.8106 27.3552 7.08294 26.8814 6.48162 26.2691C5.86874 25.6676 5.39457 24.9395 5.09224 24.1357C4.79486 23.3687 4.59259 22.4947 4.5324 21.2124L4.49628 20.3552L4.49026 20.1216C4.46806 19.2437 4.45803 18.3655 4.46016 17.4874V15.012C4.45683 14.1338 4.46566 13.2556 4.48664 12.3777L4.49507 12.1441C4.5047 11.8732 4.51674 11.6072 4.53119 11.2869C4.59139 10.0047 4.79366 9.13179 5.09104 8.36366C5.39407 7.55965 5.86907 6.83153 6.48283 6.23022C7.08379 5.61806 7.81103 5.14433 8.61386 4.84205C9.38199 4.54466 10.2549 4.3424 11.5371 4.2822C11.8574 4.26775 12.1246 4.25571 12.3943 4.24608L12.6279 4.23886C13.5058 4.21746 14.384 4.20823 15.2622 4.21116L17.7375 4.20996ZM16.4999 10.2298C14.9033 10.2298 13.3721 10.864 12.2432 11.993C11.1142 13.1219 10.48 14.6531 10.48 16.2497C10.48 17.8462 11.1142 19.3774 12.2432 20.5063C13.3721 21.6353 14.9033 22.2695 16.4999 22.2695C18.0964 22.2695 19.6276 21.6353 20.7565 20.5063C21.8855 19.3774 22.5197 17.8462 22.5197 16.2497C22.5197 14.6531 21.8855 13.1219 20.7565 11.993C19.6276 10.864 18.0964 10.2298 16.4999 10.2298ZM16.4999 12.6378C16.9742 12.6377 17.4439 12.731 17.8821 12.9125C18.3204 13.0939 18.7186 13.3599 19.054 13.6952C19.3895 14.0306 19.6556 14.4287 19.8372 14.8669C20.0188 15.3051 20.1123 15.7747 20.1124 16.2491C20.1125 16.7234 20.0191 17.1931 19.8377 17.6313C19.6562 18.0696 19.3902 18.4678 19.0549 18.8033C18.7196 19.1387 18.3214 19.4048 17.8832 19.5864C17.4451 19.768 16.9754 19.8615 16.5011 19.8616C15.5431 19.8616 14.6244 19.481 13.9471 18.8037C13.2697 18.1263 12.8892 17.2076 12.8892 16.2497C12.8892 15.2917 13.2697 14.373 13.9471 13.6957C14.6244 13.0183 15.5431 12.6378 16.5011 12.6378M22.8219 8.42386C22.4228 8.42386 22.04 8.58242 21.7577 8.86465C21.4755 9.14689 21.3169 9.52968 21.3169 9.92882C21.3169 10.328 21.4755 10.7108 21.7577 10.993C22.04 11.2752 22.4228 11.4338 22.8219 11.4338C23.2211 11.4338 23.6038 11.2752 23.8861 10.993C24.1683 10.7108 24.3269 10.328 24.3269 9.92882C24.3269 9.52968 24.1683 9.14689 23.8861 8.86465C23.6038 8.58242 23.2211 8.42386 22.8219 8.42386Z" fill="#8A54FF"/>
</svg>
