<svg width="135" height="46" viewBox="0 0 135 46" fill="none" xmlns="http://www.w3.org/2000/svg">
<path d="M17.7465 13.3211L11.9449 16.7854C11.1143 17.2767 10.0659 16.6765 10.0659 15.7142V10.6571C10.0659 10.2165 10.2989 9.80875 10.6787 9.58591L16.4804 6.12165C17.311 5.63038 18.3594 6.23054 18.3594 7.19284V12.2499C18.3594 12.6906 18.1264 13.0983 17.7465 13.3211Z" fill="url(#paint0_linear_2011_3461)"/>
<path d="M27.4179 6.55212L22.2645 9.63146C21.5276 10.067 20.5957 9.53523 20.5957 8.67929V4.1869C20.5957 3.79439 20.8034 3.43226 21.1402 3.23474L26.2935 0.155402C27.0304 -0.280162 27.9623 0.251631 27.9623 1.10757V5.59996C27.9623 5.99247 27.7547 6.3546 27.4179 6.55212Z" fill="url(#paint1_linear_2011_3461)"/>
<path d="M20.4994 31.5464L1.22819 20.1609L0.964825 19.9811C0.909113 19.9431 0.860998 19.89 0.820481 19.8292C0.653346 19.576 0.693864 19.2366 0.871129 18.991L0.906582 18.9403C0.906582 18.9403 0.00759705 19.5506 0 20.5737V33.6178C0 34.4814 0.455824 35.2791 1.1978 35.7197L18.0177 45.6566C19.6434 46.6189 21.6997 45.4439 21.6997 43.5548V33.6482C21.6997 32.7847 21.2439 31.987 20.5019 31.5464H20.4994Z" fill="url(#paint2_linear_2011_3461)"/>
<path d="M21.3125 13.0325L23.8626 11.5105V10.2444C23.8626 10.1355 23.855 10.0316 23.8423 9.92781L22.3305 10.8319C21.5632 11.2851 20.5933 10.7331 20.5933 9.84171V7.95511C20.454 8.00576 20.3173 8.06653 20.1831 8.14503L19.3702 8.62618V13.4022C19.3702 13.896 19.1094 14.3544 18.6839 14.6051L12.1733 18.4922C11.2413 19.0417 10.0663 18.3707 10.0663 17.2894V14.1239L2.67947 18.4365L2.64402 18.4872C2.46676 18.7328 2.42624 19.0721 2.59337 19.3254C2.63389 19.3861 2.682 19.4393 2.73772 19.4773L3.00108 19.6571L15.0323 26.7654L22.6648 22.2553C23.1662 21.959 23.5308 21.4981 23.7182 20.9663L22.8041 21.5133C21.8266 22.0907 20.5933 21.3867 20.5933 20.2522V14.2986C20.5933 13.7795 20.8668 13.3009 21.3125 13.0375V13.0325Z" fill="url(#paint3_linear_2011_3461)"/>
<path d="M29.2842 16.2966L22.7203 20.2167C21.7808 20.7712 20.5957 20.0951 20.5957 19.0037V13.2831C20.5957 12.7842 20.8591 12.3233 21.287 12.0701L27.8509 8.15002C28.7904 7.59543 29.9755 8.27157 29.9755 9.36301V15.0836C29.9755 15.5825 29.7122 16.0433 29.2842 16.2966Z" fill="url(#paint4_linear_2011_3461)"/>
<path d="M39.7036 32V14.24H46.6156C47.8956 14.24 48.9836 14.48 49.8796 14.96C50.7916 15.424 51.4796 16.064 51.9436 16.88C52.4236 17.68 52.6636 18.584 52.6636 19.592C52.6636 20.728 52.3596 21.744 51.7516 22.64C51.1436 23.52 50.2636 24.16 49.1116 24.56L53.1916 32H49.5676L45.7756 24.944H42.9676V32H39.7036ZM46.5676 17.072H42.9676V22.28H46.5676C47.4796 22.28 48.1756 22.024 48.6556 21.512C49.1356 20.984 49.3756 20.368 49.3756 19.664C49.3756 18.96 49.1356 18.352 48.6556 17.84C48.1756 17.328 47.4796 17.072 46.5676 17.072ZM61.1466 32.24C60.0586 32.24 59.1146 32.056 58.3146 31.688C57.5306 31.304 56.8746 30.8 56.3466 30.176C55.8346 29.536 55.4506 28.824 55.1946 28.04C54.9386 27.256 54.8106 26.456 54.8106 25.64C54.8106 24.824 54.9306 24.032 55.1706 23.264C55.4266 22.48 55.8026 21.768 56.2986 21.128C56.8106 20.488 57.4586 19.984 58.2426 19.616C59.0266 19.232 59.9546 19.04 61.0266 19.04C62.1786 19.04 63.1946 19.296 64.0746 19.808C64.9546 20.32 65.6426 21.072 66.1386 22.064C66.6346 23.04 66.8826 24.256 66.8826 25.712V26.528H58.0266C58.0746 27.392 58.3706 28.144 58.9146 28.784C59.4586 29.408 60.2026 29.72 61.1466 29.72C61.6906 29.72 62.1386 29.632 62.4906 29.456C62.8426 29.28 63.1146 29.08 63.3066 28.856C63.4986 28.616 63.6346 28.416 63.7146 28.256C63.7946 28.08 63.8346 27.992 63.8346 27.992H66.7866C66.7866 27.992 66.7466 28.136 66.6666 28.424C66.5866 28.696 66.4346 29.048 66.2106 29.48C66.0026 29.896 65.6906 30.32 65.2746 30.752C64.8586 31.168 64.3146 31.52 63.6426 31.808C62.9706 32.096 62.1386 32.24 61.1466 32.24ZM58.0266 24.44H63.8106C63.7626 23.448 63.4666 22.712 62.9226 22.232C62.3786 21.752 61.7386 21.512 61.0026 21.512C60.1866 21.512 59.5066 21.776 58.9626 22.304C58.4186 22.816 58.1066 23.528 58.0266 24.44ZM69.5808 32V19.28H72.7728V21.104H72.9168C73.0448 20.88 73.2448 20.608 73.5168 20.288C73.7888 19.952 74.1648 19.664 74.6448 19.424C75.1248 19.168 75.7328 19.04 76.4688 19.04C77.4448 19.04 78.2448 19.264 78.8688 19.712C79.5088 20.144 79.9808 20.72 80.2848 21.44C80.6048 22.16 80.7648 22.936 80.7648 23.768V32H77.5728V24.2C77.5728 23.512 77.3808 22.92 76.9968 22.424C76.6128 21.928 76.0368 21.68 75.2688 21.68C74.6768 21.68 74.1968 21.832 73.8288 22.136C73.4608 22.424 73.1888 22.8 73.0128 23.264C72.8528 23.728 72.7728 24.216 72.7728 24.728V32H69.5808ZM89.1918 32.24C88.3278 32.24 87.6158 32.112 87.0558 31.856C86.4958 31.6 86.0558 31.264 85.7358 30.848C85.4318 30.432 85.2158 29.976 85.0878 29.48C84.9598 28.984 84.8958 28.496 84.8958 28.016V21.848H82.7118V19.28H84.8958V16.112H88.0878V19.28H90.9438V21.848H88.0878V27.944C88.0878 29.08 88.7278 29.648 90.0078 29.648C90.3118 29.648 90.5918 29.632 90.8478 29.6C91.1198 29.552 91.2558 29.528 91.2558 29.528V32.024C91.2558 32.024 91.0478 32.056 90.6318 32.12C90.2318 32.2 89.7518 32.24 89.1918 32.24ZM93.862 32V19.28H97.054V21.104H97.198C97.326 20.88 97.526 20.608 97.798 20.288C98.07 19.952 98.446 19.664 98.926 19.424C99.406 19.168 100.014 19.04 100.75 19.04C101.726 19.04 102.526 19.264 103.15 19.712C103.79 20.144 104.262 20.72 104.566 21.44C104.886 22.16 105.046 22.936 105.046 23.768V32H101.854V24.2C101.854 23.512 101.662 22.92 101.278 22.424C100.894 21.928 100.318 21.68 99.55 21.68C98.958 21.68 98.478 21.832 98.11 22.136C97.742 22.424 97.47 22.8 97.294 23.264C97.134 23.728 97.054 24.216 97.054 24.728V32H93.862ZM114.069 32.24C112.981 32.24 112.037 32.056 111.237 31.688C110.453 31.304 109.797 30.8 109.269 30.176C108.757 29.536 108.373 28.824 108.117 28.04C107.861 27.256 107.733 26.456 107.733 25.64C107.733 24.824 107.853 24.032 108.093 23.264C108.349 22.48 108.725 21.768 109.221 21.128C109.733 20.488 110.381 19.984 111.165 19.616C111.949 19.232 112.877 19.04 113.949 19.04C115.101 19.04 116.117 19.296 116.997 19.808C117.877 20.32 118.565 21.072 119.061 22.064C119.557 23.04 119.805 24.256 119.805 25.712V26.528H110.949C110.997 27.392 111.293 28.144 111.837 28.784C112.381 29.408 113.125 29.72 114.069 29.72C114.613 29.72 115.061 29.632 115.413 29.456C115.765 29.28 116.037 29.08 116.229 28.856C116.421 28.616 116.557 28.416 116.637 28.256C116.717 28.08 116.757 27.992 116.757 27.992H119.709C119.709 27.992 119.669 28.136 119.589 28.424C119.509 28.696 119.357 29.048 119.133 29.48C118.925 29.896 118.613 30.32 118.197 30.752C117.781 31.168 117.237 31.52 116.565 31.808C115.893 32.096 115.061 32.24 114.069 32.24ZM110.949 24.44H116.733C116.685 23.448 116.389 22.712 115.845 22.232C115.301 21.752 114.661 21.512 113.925 21.512C113.109 21.512 112.429 21.776 111.885 22.304C111.341 22.816 111.029 23.528 110.949 24.44ZM121.366 32L125.326 25.664L121.342 19.28H124.702L127.462 23.744L130.27 19.28H133.606L129.526 25.664L133.606 32H130.246L127.462 27.536L124.702 32H121.366Z" fill="url(#paint5_linear_2011_3461)"/>
<defs>
<linearGradient id="paint0_linear_2011_3461" x1="14.2126" y1="5.94638" x2="14.2126" y2="16.9606" gradientUnits="userSpaceOnUse">
<stop offset="0.14" stop-color="#8A54FF"/>
<stop offset="1" stop-color="#FE01FE"/>
</linearGradient>
<linearGradient id="paint1_linear_2011_3461" x1="24.279" y1="0" x2="24.279" y2="9.78686" gradientUnits="userSpaceOnUse">
<stop offset="0.14" stop-color="#8A54FF"/>
<stop offset="1" stop-color="#FE01FE"/>
</linearGradient>
<linearGradient id="paint2_linear_2011_3461" x1="0.00506464" y1="20.5788" x2="20.0309" y2="44.6867" gradientUnits="userSpaceOnUse">
<stop offset="0.1" stop-color="#662D91"/>
<stop offset="0.83" stop-color="#FF00FF"/>
</linearGradient>
<linearGradient id="paint3_linear_2011_3461" x1="13.1749" y1="7.95511" x2="13.1749" y2="26.7654" gradientUnits="userSpaceOnUse">
<stop stop-color="#FF9121"/>
<stop offset="1" stop-color="#FE01FE"/>
</linearGradient>
<linearGradient id="paint4_linear_2011_3461" x1="25.2856" y1="7.95203" x2="25.2856" y2="20.4146" gradientUnits="userSpaceOnUse">
<stop offset="0.14" stop-color="#8A54FF"/>
<stop offset="1" stop-color="#FE01FE"/>
</linearGradient>
<linearGradient id="paint5_linear_2011_3461" x1="86.4756" y1="7" x2="86.4756" y2="39" gradientUnits="userSpaceOnUse">
<stop stop-color="white"/>
<stop offset="1" stop-color="white" stop-opacity="0.9"/>
</linearGradient>
</defs>
</svg>
