<svg width="110" height="83" viewBox="0 0 110 83" fill="none" xmlns="http://www.w3.org/2000/svg">
<g filter="url(#filter0_ii_118_2486)">
<path d="M81.8557 44.7394C78.8103 39.4972 72.0624 37.7087 66.8202 40.7559L54.7863 47.747L48.0053 36.057C38.7759 21.3394 17.6141 33.2618 25.5523 48.5262L30.7104 57.7393C34.5135 63.9724 43.6287 58.7607 40.3014 52.343L35.0806 43.0242C33.9151 40.8065 37.0518 39.1154 38.3463 41.3647L45.373 53.4504C41.4546 56.7407 40.4175 62.8662 43.0871 67.264L48.6122 76.7762C51.6755 82.0661 58.4939 83.7817 63.6477 80.7616L83.3954 69.2889C88.5686 66.4274 90.4602 59.3021 87.3807 54.2534L81.8557 44.7394ZM48.4412 51.4333L41.5152 39.5205C37.661 33.1735 28.4599 38.3826 31.8956 44.8416L37.1055 54.1388C37.6015 55.0233 37.3043 56.1136 36.427 56.6221C35.5658 57.1198 34.3806 56.7743 33.9026 55.9381L28.7374 46.7124C22.9971 35.7824 38.2962 27.2566 44.8345 37.8986L51.6151 49.5894L48.4412 51.4333ZM75.9976 63.1372C75.508 65.067 73.437 66.269 71.5199 65.744L67.9705 64.803L67.0315 68.3454C66.5416 70.2772 64.4713 71.479 62.5538 70.9539C60.6314 70.4865 59.3978 68.3668 59.9416 66.4673L60.8811 62.9235L57.3385 61.9842C55.4219 61.5187 54.1874 59.3952 54.7317 57.4994C55.2222 55.5762 57.2896 54.3718 59.204 54.8926L62.7606 55.8351L63.6996 52.293C64.1911 50.3639 66.2634 49.1562 68.1791 49.6862C70.0999 50.1508 71.3333 52.2734 70.7895 54.171L69.8502 57.714L73.3908 58.6523C75.3074 59.1176 76.5419 61.2414 75.9976 63.1372Z" fill="url(#paint0_linear_118_2486)"/>
<path d="M92.5835 0H17.4169C7.81024 0 0.00022008 7.81002 0.00022008 17.4167C0.0991467 20.4159 0.0892833 23.5793 0 26.5833C0.100925 37.66 9.49877 45.0166 20.2585 44C19.8152 40.2398 20.7795 36.1798 22.8985 33H17.4169C-0.976305 32.6561 -1.00987 4.00739 17.4171 3.66667H92.5835C111.014 4.13048 111.072 32.5365 92.5835 33H50.3985C51.889 35.2786 54.6871 40.3427 56.1185 42.735C57.5336 41.9667 65.5103 37.1131 66.8435 36.6666C73.9002 33.6985 82.3722 37.1283 85.6719 44H92.5836C102.19 44 110 36.19 110 26.5833C109.904 23.5798 109.909 20.4195 110 17.4167C110 7.81002 102.19 0 92.5835 0Z" fill="url(#paint1_linear_118_2486)"/>
<path d="M45.8335 18.3333C45.8335 19.3458 46.6535 20.1667 47.6669 20.1667H50.5749L48.5191 22.2229C47.803 22.939 47.803 24.1001 48.5191 24.8153C49.2352 25.5315 50.3954 25.5315 51.1115 24.8153L53.1669 22.7597V25.6666C53.1669 26.6791 53.9869 27.5 55.0002 27.5C56.0135 27.5 56.8335 26.6791 56.8335 25.6666V22.7597L58.8889 24.8153C59.605 25.5315 60.7652 25.5315 61.4813 24.8153C62.1974 24.1001 62.1974 22.939 61.4813 22.2229L59.4255 20.1667H62.3335C63.3469 20.1667 64.1668 19.3458 64.1668 18.3333C64.1668 17.3209 63.3469 16.5 62.3335 16.5H59.4255L61.4813 14.4438C62.1974 13.7276 62.1974 12.5666 61.4813 11.8513C60.7652 11.1352 59.605 11.1352 58.8889 11.8513L56.8335 13.907V11C56.8335 9.98756 56.0135 9.16669 55.0002 9.16669C53.9869 9.16669 53.1669 9.98756 53.1669 11V13.907L51.1115 11.8513C50.3954 11.1352 49.2352 11.1352 48.5191 11.8513C47.803 12.5666 47.803 13.7276 48.5191 14.4438L50.5749 16.5H47.6669C46.6535 16.5 45.8335 17.3209 45.8335 18.3333Z" fill="url(#paint2_linear_118_2486)"/>
<path d="M71.5002 18.3333C71.5002 19.3458 72.3202 20.1667 73.3336 20.1667H76.2415L74.1858 22.2229C73.4696 22.939 73.4696 24.1001 74.1858 24.8153C74.9019 25.5315 76.0621 25.5315 76.7782 24.8153L78.8335 22.7597V25.6666C78.8335 26.6791 79.6535 27.5 80.6669 27.5C81.6802 27.5 82.5002 26.6791 82.5002 25.6666V22.7597L84.5555 24.8153C85.2717 25.5315 86.4318 25.5315 87.148 24.8153C87.8641 24.1001 87.8641 22.939 87.148 22.2229L85.0922 20.1667H88.0002C89.0135 20.1667 89.8335 19.3458 89.8335 18.3333C89.8335 17.3209 89.0135 16.5 88.0002 16.5H85.0922L87.148 14.4438C87.8641 13.7276 87.8641 12.5666 87.148 11.8513C86.4318 11.1352 85.2717 11.1352 84.5555 11.8513L82.5002 13.907V11C82.5002 9.98756 81.6802 9.16669 80.6669 9.16669C79.6535 9.16669 78.8335 9.98756 78.8335 11V13.907L76.7782 11.8513C76.0621 11.1352 74.9019 11.1352 74.1858 11.8513C73.4696 12.5666 73.4696 13.7276 74.1858 14.4438L76.2415 16.5H73.3336C72.3202 16.5 71.5002 17.3209 71.5002 18.3333Z" fill="url(#paint3_linear_118_2486)"/>
<path d="M22.8524 24.8153C23.5686 25.5315 24.7287 25.5315 25.4449 24.8153L27.5002 22.7597V25.6666C27.5002 26.6791 28.3202 27.5 29.3335 27.5C30.3469 27.5 31.1669 26.6791 31.1669 25.6666V22.7597L33.2222 24.8153C33.9383 25.5315 35.0985 25.5315 35.8146 24.8153C36.5308 24.1001 36.5308 22.939 35.8146 22.2229L33.7589 20.1667H36.6668C37.6802 20.1667 38.5002 19.3458 38.5002 18.3333C38.5002 17.3209 37.6802 16.5 36.6668 16.5H33.7589L35.8146 14.4438C36.5308 13.7276 36.5308 12.5666 35.8146 11.8513C35.0985 11.1352 33.9383 11.1352 33.2222 11.8513L31.1669 13.907V11C31.1669 9.98756 30.3469 9.16669 29.3335 9.16669C28.3202 9.16669 27.5002 9.98756 27.5002 11V13.907L25.4449 11.8513C24.7287 11.1352 23.5686 11.1352 22.8524 11.8513C22.1363 12.5666 22.1363 13.7276 22.8524 14.4438L24.9083 16.5H22.0002C20.9869 16.5 20.1669 17.3209 20.1669 18.3333C20.1669 19.3458 20.9869 20.1667 22.0002 20.1667H24.9083L22.8524 22.2229C22.1363 22.939 22.1363 24.1001 22.8524 24.8153Z" fill="url(#paint4_linear_118_2486)"/>
</g>
<defs>
<filter id="filter0_ii_118_2486" x="0" y="-0.75" width="110" height="83.7461" filterUnits="userSpaceOnUse" color-interpolation-filters="sRGB">
<feFlood flood-opacity="0" result="BackgroundImageFix"/>
<feBlend mode="normal" in="SourceGraphic" in2="BackgroundImageFix" result="shape"/>
<feColorMatrix in="SourceAlpha" type="matrix" values="0 0 0 0 0 0 0 0 0 0 0 0 0 0 0 0 0 0 127 0" result="hardAlpha"/>
<feOffset dy="-0.75"/>
<feGaussianBlur stdDeviation="0.375"/>
<feComposite in2="hardAlpha" operator="arithmetic" k2="-1" k3="1"/>
<feColorMatrix type="matrix" values="0 0 0 0 0 0 0 0 0 0 0 0 0 0 0 0 0 0 0.2 0"/>
<feBlend mode="normal" in2="shape" result="effect1_innerShadow_118_2486"/>
<feColorMatrix in="SourceAlpha" type="matrix" values="0 0 0 0 0 0 0 0 0 0 0 0 0 0 0 0 0 0 127 0" result="hardAlpha"/>
<feOffset dy="0.75"/>
<feGaussianBlur stdDeviation="0.375"/>
<feComposite in2="hardAlpha" operator="arithmetic" k2="-1" k3="1"/>
<feColorMatrix type="matrix" values="0 0 0 0 1 0 0 0 0 1 0 0 0 0 1 0 0 0 0.16 0"/>
<feBlend mode="normal" in2="effect1_innerShadow_118_2486" result="effect2_innerShadow_118_2486"/>
</filter>
<linearGradient id="paint0_linear_118_2486" x1="55.0001" y1="0" x2="55.0001" y2="82.2461" gradientUnits="userSpaceOnUse">
<stop offset="0.299833" stop-color="#FF9121"/>
<stop offset="0.814016" stop-color="#FE01FE"/>
</linearGradient>
<linearGradient id="paint1_linear_118_2486" x1="55.0001" y1="0" x2="55.0001" y2="82.2461" gradientUnits="userSpaceOnUse">
<stop offset="0.299833" stop-color="#FF9121"/>
<stop offset="0.814016" stop-color="#FE01FE"/>
</linearGradient>
<linearGradient id="paint2_linear_118_2486" x1="55.0001" y1="0" x2="55.0001" y2="82.2461" gradientUnits="userSpaceOnUse">
<stop offset="0.299833" stop-color="#FF9121"/>
<stop offset="0.814016" stop-color="#FE01FE"/>
</linearGradient>
<linearGradient id="paint3_linear_118_2486" x1="55.0001" y1="0" x2="55.0001" y2="82.2461" gradientUnits="userSpaceOnUse">
<stop offset="0.299833" stop-color="#FF9121"/>
<stop offset="0.814016" stop-color="#FE01FE"/>
</linearGradient>
<linearGradient id="paint4_linear_118_2486" x1="55.0001" y1="0" x2="55.0001" y2="82.2461" gradientUnits="userSpaceOnUse">
<stop offset="0.299833" stop-color="#FF9121"/>
<stop offset="0.814016" stop-color="#FE01FE"/>
</linearGradient>
</defs>
</svg>
