<svg width="16" height="20" viewBox="0 0 16 20" fill="none" xmlns="http://www.w3.org/2000/svg">
<path d="M4.41819 0.106456C4.96531 -0.058503 5.55242 -0.0310978 6.08179 0.184109C6.61117 0.399317 7.05086 0.789342 7.32769 1.28926L7.42021 1.47556L8.24792 3.31478C8.49864 3.87313 8.57991 4.4928 8.48167 5.09692C8.38343 5.70104 8.10999 6.26302 7.69528 6.71316L7.52899 6.8782L6.2249 8.09476C5.98984 8.31732 6.16614 9.17879 7.01636 10.6517C7.78155 11.977 8.40421 12.5959 8.71054 12.6297H8.76431L8.83057 12.6172L11.3937 11.8332C11.7382 11.7276 12.1058 11.7234 12.4526 11.8212C12.7994 11.919 13.1107 12.1146 13.3492 12.3846L13.463 12.5284L15.1597 14.879C15.4922 15.3397 15.6579 15.9 15.6295 16.4675C15.6011 17.035 15.3803 17.5758 15.0034 18.0011L14.8509 18.1586L14.1732 18.8013C13.5647 19.3776 12.8034 19.767 11.98 19.9233C11.1566 20.0795 10.3056 19.996 9.52825 19.6827C7.10888 18.7075 4.91081 16.4794 2.91405 13.021C0.913537 9.55389 0.0820733 6.53186 0.453419 3.94369C0.56579 3.16133 0.887956 2.424 1.3857 1.81001C1.88345 1.19603 2.53819 0.728318 3.2804 0.456546L3.52171 0.376525L4.41819 0.106456Z" fill="url(#paint0_linear_97_8400)"/>
<defs>
<linearGradient id="paint0_linear_97_8400" x1="7.99998" y1="0" x2="7.99998" y2="20" gradientUnits="userSpaceOnUse">
<stop stop-color="white"/>
<stop offset="1" stop-color="white" stop-opacity="0.9"/>
</linearGradient>
</defs>
</svg>
