<svg width="53" height="41" viewBox="0 0 53 41" fill="none" xmlns="http://www.w3.org/2000/svg">
<path d="M0 40.042V29.5157C0 26.3188 0.565302 22.927 1.69591 19.3402C2.8655 15.7145 4.54191 12.2252 6.72515 8.87241C8.94737 5.48059 11.6179 2.53712 14.7368 0.0419922L22.2222 6.12386C19.7661 9.63264 17.6218 13.2974 15.7895 17.118C13.9961 20.8997 13.0994 24.9543 13.0994 29.2818V40.042H0ZM29.9415 40.042V29.5157C29.9415 26.3188 30.5068 22.927 31.6374 19.3402C32.807 15.7145 34.4834 12.2252 36.6667 8.87241C38.8889 5.48059 41.5594 2.53712 44.6784 0.0419922L52.1637 6.12386C49.7076 9.63264 47.5633 13.2974 45.731 17.118C43.9376 20.8997 43.0409 24.9543 43.0409 29.2818V40.042H29.9415Z" fill="url(#paint0_linear_2011_2777)"/>
<defs>
<linearGradient id="paint0_linear_2011_2777" x1="26.0819" y1="40.042" x2="26.0819" y2="0.0419922" gradientUnits="userSpaceOnUse">
<stop stop-color="#FF37E3"/>
<stop offset="1" stop-color="#8A54FF"/>
</linearGradient>
</defs>
</svg>
